<?xml version="1.0" standalone="no"?>
<!DOCTYPE svg PUBLIC "-//W3C//DTD SVG 1.1//EN" "http://www.w3.org/Graphics/SVG/1.1/DTD/svg11.dtd" >
<svg xmlns="http://www.w3.org/2000/svg" xmlns:xlink="http://www.w3.org/1999/xlink" version="1.1">
<metadata>
Created by FontForge 20161116 at Thu Jan  2 10:54:07 2003
 By Jimmy Wärting
Copyright (c) FT Content Provider, 2003. All rights reserved.
</metadata>
<defs>
<font id="ft40-Roman" horiz-adv-x="708" >
  <font-face 
    font-family="ft40"
    font-weight="400"
    font-stretch="normal"
    units-per-em="1000"
    panose-1="2 0 5 5 5 0 0 2 0 4"
    ascent="800"
    descent="-200"
    x-height="530"
    cap-height="700"
    bbox="-40 -189 1257 1007"
    underline-thickness="50"
    underline-position="-125"
    unicode-range="U+0020-2265"
  />
<missing-glyph horiz-adv-x="233" 
 />
    <glyph glyph-name=".notdef" horiz-adv-x="233" 
 />
    <glyph glyph-name=".null" horiz-adv-x="0" 
 />
    <glyph glyph-name="nonmarkingreturn" horiz-adv-x="233" 
 />
    <glyph glyph-name="space" unicode=" " horiz-adv-x="233" 
 />
    <glyph glyph-name="space" unicode="&#xa0;" horiz-adv-x="233" 
 />
    <glyph glyph-name="numbersign" unicode="#" horiz-adv-x="903" 
d="M580 433h-194l-64 -157h194zM176 186h-146l35 90h147l64 157h-147l37 90h146l72 177h110l-71 -177h193l71 177h110l-70 -177h146l-36 -90h-147l-63 -157h146l-36 -90h-146l-75 -186h-111l75 186h-193l-76 -186h-110z" />
    <glyph glyph-name="dollar" unicode="$" horiz-adv-x="772" 
d="M69 174h364q24 0 33.5 1.5t12.5 3.5q5 2 10 7t5 14q0 19 -16 27.5t-28 11.5l-255 60q-45 11 -72 34t-41 46q-20 32 -26 65.5t-6 66.5q0 31 6.5 66.5t30.5 65.5q17 22 36.5 33.5t40 16.5t40 6t36.5 1h100v72h96v-72h248v-174h-336q-9 0 -25.5 -0.5t-21.5 -1.5
q-14 -2 -18.5 -10t-4.5 -15q0 -12 12.5 -22t41.5 -17l234 -53q50 -11 77 -27.5t41 -32.5q13 -15 20.5 -34t11.5 -40t5 -42.5t1 -42.5q0 -19 -1 -38t-5.5 -37.5t-12.5 -35.5t-22 -32q-18 -19 -39 -28.5t-42.5 -13t-42.5 -3.5h-39h-82v-72h-96v72h-271v174z" />
    <glyph glyph-name="percent" unicode="%" horiz-adv-x="818" 
d="M535 164q0 -35 5 -48.5t8 -18.5q11 -15 29 -18.5t30 -3.5q13 0 31 3.5t29 18.5q3 5 8 18.5t5 48.5q0 31 -4 45.5t-9 20.5q-12 17 -29 19.5t-31 2.5q-13 0 -30 -2.5t-29 -19.5q-5 -6 -9 -20.5t-4 -45.5zM607 333q35 0 64.5 -5.5t55.5 -31.5q28 -29 34.5 -64t6.5 -68
q0 -35 -6.5 -69.5t-34.5 -62.5q-26 -26 -55.5 -32t-64.5 -6t-64 6t-55 32q-28 28 -34.5 62.5t-6.5 69.5q0 33 6.5 68t34.5 64q26 26 55 31.5t64 5.5zM138 536q0 -34 5 -47.5t8 -18.5q11 -15 29 -18.5t31 -3.5q12 0 30 3.5t29 18.5q3 5 8 18.5t5 47.5q0 35 -5 49t-8 18
q-11 15 -29 18.5t-30 3.5q-13 0 -31 -3.5t-29 -18.5q-3 -4 -8 -18t-5 -49zM211 706q35 0 64 -6t55 -32q28 -28 34.5 -62.5t6.5 -69.5q0 -34 -6.5 -68.5t-34.5 -62.5q-26 -26 -55 -32t-64 -6t-64.5 6t-55.5 32q-28 28 -34.5 62.5t-6.5 68.5q0 35 6.5 69.5t34.5 62.5
q26 26 55.5 32t64.5 6zM561 700h104l-406 -700h-104z" />
    <glyph glyph-name="ampersand" unicode="&#x26;" horiz-adv-x="834" 
d="M456 174q11 0 23.5 0.5t19.5 8.5q6 6 7 16.5t1 15.5v63h-175q-11 0 -22 -0.5t-24 -14.5q-8 -9 -11 -18t-3 -19q0 -13 5 -25t14 -18t24.5 -7.5t27.5 -1.5h113v0zM733 202q0 -19 -1.5 -41t-6.5 -43.5t-15 -41.5t-26 -35t-36 -23t-42 -12t-45 -5t-45 -1h-263q-17 0 -37.5 1
t-42.5 6.5t-43.5 17.5t-40.5 34q-26 29 -32.5 61t-6.5 71q0 29 4 59.5t23 56.5t41.5 35t42.5 10v2q-26 5 -44 16t-29 24q-23 26 -29.5 55.5t-6.5 60.5q0 57 13 92.5t32 54.5q16 16 36 24.5t42.5 12.5t45 5t42.5 1h447v-174h-346q-30 0 -44.5 -1t-22.5 -6q-9 -5 -16 -14.5
t-7 -26.5q0 -15 6 -26.5t21 -16.5q5 -2 17 -3.5t44 -1.5h462v-152h-91v-76z" />
    <glyph glyph-name="quotesingle" unicode="'" horiz-adv-x="288" 
d="M50 700h188l-13 -325h-162z" />
    <glyph glyph-name="parenleft" unicode="(" horiz-adv-x="411" 
d="M190 158q0 -26 3.5 -58t20.5 -60q9 -15 25.5 -29t38 -24.5t48 -16.5t55.5 -4v-130q-50 -3 -90.5 5t-73 22t-57.5 33t-43 38q-26 27 -38 53t-20 62q-7 34 -8 62.5t-1 60.5v201q0 35 1 63.5t9 64.5q8 32 21 59t36 52q17 18 42.5 36t58.5 32t74 22t89 6v-130q-29 2 -55 -3.5
t-48 -16t-38 -24.5t-26 -29q-17 -28 -20.5 -60.5t-3.5 -58.5v-228z" />
    <glyph glyph-name="parenright" unicode=")" horiz-adv-x="411" 
d="M221 386q0 26 -3.5 58.5t-20.5 60.5q-10 15 -26 29t-38 24.5t-48 16t-55 3.5v130q48 2 89 -6t74 -22t58.5 -32t42.5 -36q23 -25 36 -52t21 -59q8 -36 9 -64.5t1 -63.5v-201q0 -32 -1 -60.5t-8 -62.5q-8 -36 -20 -62t-38 -53q-18 -19 -43 -38t-57.5 -33t-73.5 -22t-90 -5
v130q29 -2 55.5 4t48 16.5t38 24.5t25.5 29q17 28 20.5 60t3.5 58v228v0z" />
    <glyph glyph-name="asterisk" unicode="*" horiz-adv-x="490" 
d="M293 713v-140l120 70l47 -81l-121 -69l120 -70l-48 -83l-118 68v-137h-96v137l-118 -68l-48 83l120 70l-121 69l47 81l120 -70v140h96z" />
    <glyph glyph-name="plus" unicode="+" horiz-adv-x="707" 
d="M286 12v235h-236v130h236v235h136v-235h235v-130h-235v-235h-136z" />
    <glyph glyph-name="comma" unicode="," horiz-adv-x="357" 
d="M0 -71l153 256l154 -92l-169 -246z" />
    <glyph glyph-name="hyphen" unicode="-" horiz-adv-x="487" 
d="M30 347h427v-158h-427v158z" />
    <glyph glyph-name="period" unicode="." horiz-adv-x="298" 
d="M50 0v180h198v-180h-198z" />
    <glyph glyph-name="slash" unicode="/" horiz-adv-x="518" 
d="M-10 -170l438 910h100l-438 -910h-100z" />
    <glyph glyph-name="zero" unicode="0" horiz-adv-x="684" 
d="M342 172q17 0 36.5 3.5t32.5 18.5q9 11 13 32.5t4 64.5v134q0 20 -3 42.5t-17 38.5q-14 14 -33 18t-33 4t-33 -4t-33 -18q-14 -16 -17 -38.5t-3 -42.5v-134q0 -43 4 -64.5t13 -32.5q13 -15 32.5 -18.5t36.5 -3.5zM30 419q0 19 1.5 50t8.5 65.5t22 67.5t42 56
q22 19 50.5 29t60 14.5t64.5 5.5t63 1t63 -1t64.5 -5.5t60 -14.5t50.5 -29q27 -23 42 -56t22 -67.5t8.5 -65.5t1.5 -50v-143q0 -39 -3.5 -77t-12 -71.5t-24 -60.5t-39.5 -43q-30 -20 -86 -26t-147 -6t-147 6t-86 26q-24 16 -39.5 43t-24 60.5t-12 71.5t-3.5 77v143z" />
    <glyph glyph-name="one" unicode="1" horiz-adv-x="403" 
d="M127 468q0 9 -1.5 23.5t-7.5 22.5q-3 4 -10.5 8t-22.5 4h-85v174h241q26 0 46 -7.5t33 -18.5q14 -13 23.5 -35.5t9.5 -52.5v-586h-226v468z" />
    <glyph glyph-name="two" unicode="2" horiz-adv-x="677" 
d="M129 0q-28 0 -47 11t-30.5 29.5t-16.5 41.5t-5 47q0 10 1.5 28.5t7.5 38.5t18 38.5t34 30.5l295 156q23 12 29 29.5t6 30.5q0 8 -2 18t-10 18q-12 12 -29 13t-30 1h-279v169h421q29 0 62 -11.5t54 -34.5q26 -28 32.5 -67.5t6.5 -76.5q0 -52 -7.5 -87.5t-21 -59.5
t-33 -39.5t-44.5 -27.5l-212 -105q-3 -2 -6.5 -4t-3.5 -6t2 -4h5h308v-177h-505v0z" />
    <glyph glyph-name="three" unicode="3" horiz-adv-x="689" 
d="M30 174h277q24 0 39.5 0.5t26 1t17.5 2t12 4.5q17 8 21 19.5t4 25.5t-4 26.5t-21 20.5q-11 5 -24 5h-28h-303v154h291q15 0 31.5 1.5t28.5 13.5q8 8 10.5 18.5t2.5 18.5q0 10 -2 19.5t-12 17.5q-11 10 -26.5 11t-30.5 1h-302v166h429q16 0 34.5 -1t36.5 -6.5t35.5 -17
t32.5 -31.5q21 -28 27 -61t6 -63q0 -28 -5 -59.5t-27 -56.5q-14 -16 -35 -26.5t-46 -13.5v-3q22 0 47 -7.5t43 -22.5q16 -13 24.5 -29.5t12.5 -34t5 -35t1 -31.5q0 -48 -8.5 -86t-44.5 -71q-32 -29 -64.5 -36.5t-67.5 -7.5h-444v174z" />
    <glyph glyph-name="four" unicode="4" horiz-adv-x="769" 
d="M419 454q0 4 -4 4t-6.5 -3.5t-6.5 -6.5l-169 -150q-2 -2 -4.5 -5t-2.5 -5q0 -3 2.5 -6t10.5 -3h180v175zM419 95h-314q-17 0 -35.5 5t-34.5 28q-1 1 -5 7.5t-8.5 20t-8 33.5t-3.5 47q0 31 4.5 53t12 38t17 27.5t20.5 21.5l319 287q17 15 48 30t87 15q26 0 54 -6t48 -26
t22.5 -39.5t2.5 -41.5v-316h104v-184h-104v-95h-226v95z" />
    <glyph glyph-name="five" unicode="5" horiz-adv-x="682" 
d="M40 174h306q17 0 35 2t29 16q5 7 7.5 17.5t2.5 21.5q0 6 -1.5 16t-9.5 18q-11 11 -25.5 13.5t-28.5 2.5h-181q-22 0 -50.5 2t-49.5 16q-16 11 -25 26.5t-13 32t-5 33t-1 29.5v168q0 17 4.5 39t21.5 41q9 9 30 20.5t63 11.5h485v-170h-335q-9 0 -19 -1t-17 -9
q-6 -6 -6.5 -13t-0.5 -13v-11q0 -24 14 -36q8 -7 17.5 -8.5t19.5 -1.5h186q15 0 30.5 -1.5t31.5 -7t31 -16.5t30 -29q27 -34 31.5 -70.5t4.5 -77.5q0 -19 -0.5 -44t-5 -51t-15 -51t-29.5 -44q-16 -16 -36 -25t-41.5 -13.5t-43 -5.5t-41.5 -1h-400v174z" />
    <glyph glyph-name="six" unicode="6" horiz-adv-x="682" 
d="M256 224q0 -12 2.5 -24t14.5 -20q7 -4 18.5 -5t16.5 -1h62q11 0 20 2.5t15 7.5q15 12 15 38q0 11 -3 24t-11 21q-10 10 -24 11t-27 1h-99v-55zM472 433q28 0 63 -5t64 -29q19 -16 29.5 -38t16 -44.5t6.5 -44t1 -37.5q0 -12 -0.5 -32t-3.5 -43t-9 -46t-16 -41
q-19 -34 -56.5 -53.5t-99.5 -19.5h-263q-44 0 -73 13t-45 27q-20 16 -31 35.5t-16.5 39.5t-7 41t-1.5 40v319q0 15 1.5 33.5t7.5 37.5t18 38t33 35q35 27 73 34t68 7h385v-174h-293q-31 0 -41.5 -4t-13.5 -6q-9 -8 -10.5 -19.5t-1.5 -16.5v-47h216z" />
    <glyph glyph-name="seven" unicode="7" horiz-adv-x="603" 
d="M353 501l7.5 12t2.5 7t-5.5 6.5t-19.5 3.5h-348v170h531q31 0 49.5 -9.5t28 -23.5t12 -31.5t2.5 -32.5q0 -29 -6 -53.5t-23 -50.5l-316 -499h-250z" />
    <glyph glyph-name="eight" unicode="8" horiz-adv-x="688" 
d="M366 174q12 0 26 4t22 12q6 7 9 19t3 21q0 26 -18 39q-11 8 -23.5 8.5t-22.5 0.5h-36q-10 0 -22.5 -0.5t-23.5 -8.5q-5 -4 -11.5 -13t-6.5 -26q0 -11 3 -22t9 -18q8 -8 22 -12t26 -4h44zM364 430q9 0 19.5 1.5t17.5 9.5q6 6 7.5 15t1.5 18q0 10 -1.5 21.5t-11.5 19.5
q-7 5 -20.5 8t-22.5 3h-20q-9 0 -22.5 -3t-20.5 -8q-10 -8 -11.5 -19.5t-1.5 -21.5q0 -9 1.5 -18t7.5 -15q7 -8 17.5 -9.5t19.5 -1.5h40zM150 359q-13 2 -28.5 7.5t-32.5 20.5q-30 27 -36.5 59t-6.5 59q0 14 1 33.5t5.5 40t13.5 40.5t25 35q19 18 46 27.5t55 13.5t55 4.5
t46 0.5h102q19 0 46 -0.5t55 -4.5t55 -13.5t46 -27.5q16 -15 25 -35t13.5 -40.5t5.5 -40t1 -33.5q0 -27 -6.5 -59t-36.5 -59q-17 -15 -32.5 -20.5t-28.5 -7.5v-2q21 -3 42 -11.5t35 -19.5q16 -14 24.5 -31.5t12.5 -36t5 -36.5t1 -32q0 -34 -5 -65.5t-25 -58.5
q-18 -24 -41.5 -37.5t-50.5 -20t-57 -7.5t-61 -1h-148q-32 0 -62 1t-57 7.5t-50 20t-41 37.5q-20 27 -25 58.5t-5 65.5q0 14 1 32t5 36.5t12.5 36t24.5 31.5q14 11 35 19.5t42 11.5v2z" />
    <glyph glyph-name="nine" unicode="9" horiz-adv-x="678" 
d="M422 488q0 15 -9 26q-3 3 -10 7.5t-21 4.5h-57q-11 0 -23 -2.5t-20 -8.5q-12 -8 -16 -19.5t-4 -25.5q0 -16 5.5 -27t12.5 -16q3 -2 13 -5.5t35 -3.5h94v70zM52 174h318q8 0 19.5 1t20.5 9q8 8 10 16.5t2 16.5v45h-240q-45 0 -72 15.5t-41 32.5q-15 18 -23 38.5
t-11.5 42.5t-4 44.5t-0.5 42.5q0 23 0.5 46t5 45t14.5 43t29 40q33 33 70 40.5t71 7.5h220q23 0 47.5 -2t47.5 -9.5t44 -22t38 -39.5q19 -28 25 -56.5t6 -61.5v-277q0 -29 -2.5 -66.5t-20.5 -74.5q-17 -33 -40 -51.5t-47.5 -27.5t-49 -10.5t-42.5 -1.5h-394v174z" />
    <glyph glyph-name="colon" unicode=":" horiz-adv-x="298" 
d="M50 0v180h198v-180h-198zM50 350v180h198v-180h-198z" />
    <glyph glyph-name="semicolon" unicode=";" horiz-adv-x="359" 
d="M113 356v174h196v-174h-196zM0 -71l153 256l154 -92l-169 -246z" />
    <glyph glyph-name="less" unicode="&#x3c;" horiz-adv-x="709" 
d="M659 795v-122l-383 -188l383 -188v-122l-609 310z" />
    <glyph glyph-name="equal" unicode="=" 
d="M50 355v130h608v-130h-608zM50 151v130h608v-130h-608z" />
    <glyph glyph-name="greater" unicode="&#x3e;" horiz-adv-x="709" 
d="M50 175v122l383 188l-383 188v122l609 -310z" />
    <glyph glyph-name="question" unicode="?" horiz-adv-x="510" 
d="M104 241v35q0 23 6 40.5t14 29.5q8 11 20.5 21.5t34.5 25.5l31 21q15 10 24 18t14 16t6.5 17t1.5 20q0 9 -2.5 19t-14.5 16q-8 4 -20.5 5t-29.5 1h-179v174h313q13 0 29.5 -0.5t34 -5t34.5 -15t31 -29.5q17 -24 22.5 -55t5.5 -61q0 -35 -5.5 -61.5t-17 -47t-27.5 -37
t-37 -30.5l-50 -34q-8 -5 -18.5 -17t-15.5 -20q-3 -6 -6 -14.5t-3 -14.5v-17h-196zM104 182h196v-182h-196v182z" />
    <glyph glyph-name="at" unicode="@" horiz-adv-x="985" 
d="M573 372q0 9 -3 15t-6 9q-5 5 -14.5 6.5t-17.5 1.5h-39q-28 0 -49.5 -8.5t-33.5 -22.5q-3 -3 -8 -10.5t-9.5 -21t-8 -34t-3.5 -50.5q0 -48 4 -69t8 -29q10 -22 27 -31t40 -9q22 0 41 7.5t36 25.5q24 26 30 53.5t6 50.5v116v0zM379 -189q-30 0 -65 4t-70.5 16t-69 35
t-59.5 61q-41 59 -53 146t-12 211q0 44 1.5 84.5t6.5 76.5t16 68.5t30 61.5q29 44 68 69.5t81 38t84.5 16t78.5 3.5h176q34 0 76 -4.5t84 -20t79.5 -44.5t62.5 -78q14 -28 22.5 -59t12.5 -63.5t5 -65.5t1 -64q0 -40 -1.5 -71.5t-5 -57t-9 -46.5t-13.5 -39
q-22 -47 -57.5 -67.5t-86.5 -20.5q-23 0 -45 5t-41.5 15.5t-33.5 27t-20 40.5q-17 -30 -38.5 -47.5t-44 -26.5t-43.5 -11.5t-37 -2.5q-54 0 -101 18t-75 68q-20 36 -26 79t-6 86q0 62 7.5 101.5t20.5 65.5q24 49 71 76t107 27h138q20 0 43 -2t40 -19q14 -15 16 -34t2 -37
v-237q0 -43 19 -63.5t46 -20.5q20 0 33 8.5t22 24.5q13 23 16 57.5t3 97.5q0 23 -0.5 50.5t-3.5 56t-10 56.5t-21 53q-18 32 -41.5 51t-50 28.5t-54.5 12.5t-55 3h-184q-31 0 -66.5 -2.5t-69.5 -15.5t-63 -39t-45 -72q-4 -10 -7.5 -26t-6.5 -41.5t-5 -62.5t-2 -89t2.5 -90
t6.5 -64t7.5 -42t6.5 -25q15 -46 41 -73t58 -40.5t66.5 -17t65.5 -3.5h278v-94h-303z" />
    <glyph glyph-name="A" unicode="A" horiz-adv-x="778" 
d="M317 304h144l-63 177q-2 4 -4.5 9.5t-4.5 5.5t-4.5 -5.5t-4.5 -9.5zM229 623q8 19 19 35t29 27t44.5 17t67.5 6q25 0 48.5 -2.5t44 -11t38 -25.5t29.5 -46l259 -623h-238l-55 144h-252l-55 -144h-238z" />
    <glyph glyph-name="B" unicode="B" horiz-adv-x="775" 
d="M276 226q0 -18 2 -27.5t6 -14.5q7 -8 20.5 -9t21.5 -1h120q32 0 44.5 5t15.5 9q5 6 9 18t4 23q0 18 -9 30q-11 15 -27.5 17.5t-30.5 2.5h-176v-53zM444 431q14 0 29.5 2.5t24.5 16.5q4 7 5.5 16t1.5 16q0 10 -3 17.5t-8 12.5q-11 11 -25.5 12.5t-25.5 1.5h-129
q-8 0 -15 -1t-14 -7q-8 -7 -8.5 -14.5t-0.5 -15.5v-57h168zM50 587q0 51 24 78q13 15 34.5 25t44.5 10h380q19 0 39.5 -1.5t40.5 -6t38.5 -13.5t33.5 -25q15 -15 23.5 -34t13 -39t6 -40t1.5 -37q0 -29 -5.5 -56t-29.5 -53q-29 -32 -70 -35v-4q27 -2 48 -12.5t35 -23.5
q28 -27 33 -59.5t5 -64.5q0 -17 -0.5 -35.5t-4.5 -37.5t-12.5 -38t-24.5 -36q-17 -18 -35 -28t-37.5 -14.5t-41 -5.5t-43.5 -1h-366h-25t-27 3t-27 10t-25 20q-13 15 -19.5 36.5t-6.5 41.5v476z" />
    <glyph glyph-name="C" unicode="C" horiz-adv-x="645" 
d="M333 0q-41 0 -75.5 3.5t-63.5 13t-54 26t-46 43.5q-16 19 -28 42.5t-20 54t-12 69.5t-4 89q0 88 11.5 154t49.5 114q24 31 54 49t62.5 27.5t65.5 12t63 2.5h296v-174h-187q-28 0 -52 -0.5t-44 -6t-36 -16.5t-28 -32q-8 -13 -12.5 -29.5t-6.5 -34t-3 -33.5t-1 -29
q0 -29 2 -49t4.5 -33.5t5.5 -21.5t5 -12q11 -21 28.5 -32t39.5 -16t48 -6t54 -1h194v-174h-310z" />
    <glyph glyph-name="D" unicode="D" horiz-adv-x="778" 
d="M276 227q0 -11 1 -22t9 -19q9 -9 22 -10.5t15 -1.5h31q38 0 74 7t57 33q4 4 9 13t10 25t8.5 41.5t3.5 62.5q0 58 -13.5 93t-33.5 53q-23 20 -54.5 25t-72.5 5h-17q-9 0 -18 -1.5t-17 -6.5q-10 -8 -12 -19.5t-2 -19.5v-258zM50 574q0 21 3 46t20 45q13 15 35.5 25t48.5 10
h319q59 0 115.5 -21t93.5 -64t50 -106.5t13 -154.5q0 -103 -13.5 -166t-40.5 -100q-26 -36 -77 -62t-124 -26h-328q-16 0 -39.5 4t-43.5 22q-14 13 -23 33t-9 45v470z" />
    <glyph glyph-name="E" unicode="E" horiz-adv-x="691" 
d="M167 0q-22 0 -43.5 3.5t-41.5 20.5q-24 20 -28 41.5t-4 46.5v480q0 20 5 41t25 39t43 23t42 5h503v-170h-346q-10 0 -19.5 -2.5t-15.5 -7.5q-8 -7 -9.5 -17t-1.5 -17v-53h382v-152h-382v-76q0 -11 3 -17t7 -9q8 -8 20 -8.5t23 -0.5h342v-170h-504z" />
    <glyph glyph-name="F" unicode="F" horiz-adv-x="696" 
d="M50 0v582q0 22 6 45t26 43q22 21 47 25.5t44 4.5h521v-170h-375q-8 0 -16.5 -1.5t-15.5 -8.5q-6 -6 -8.5 -16t-2.5 -21v-49h305v-158h-305v-276h-226z" />
    <glyph glyph-name="G" unicode="G" horiz-adv-x="760" 
d="M730 105q0 -35 -12.5 -54t-21.5 -27q-29 -24 -75 -24h-331q-43 0 -92.5 14.5t-83.5 44.5q-29 25 -45.5 60.5t-25 74t-11 78t-2.5 74.5q0 42 3 85.5t13 84.5t30 76t54 60q24 18 52 27.5t53 14t44.5 5.5t26.5 1h408v-166h-306q-84 0 -121 -58q-18 -29 -21.5 -63t-3.5 -63
t3.5 -63t22.5 -65q19 -29 44 -38.5t54 -9.5h68q9 0 19.5 1.5t18.5 9.5t10 19t2 22v144h226v-265z" />
    <glyph glyph-name="H" unicode="H" horiz-adv-x="806" 
d="M756 0h-226v278h-254v-278h-226v700h226v-248h254v248h226v-700z" />
    <glyph glyph-name="I" unicode="I" horiz-adv-x="326" 
d="M50 0v700h226v-700h-226z" />
    <glyph glyph-name="J" unicode="J" horiz-adv-x="512" 
d="M-20 174h101q40 0 66.5 7t44.5 21q16 13 25 29.5t13.5 33.5t5 35t0.5 34v366h226v-442q0 -21 -2.5 -44.5t-9 -48t-19 -48t-33.5 -44.5q-12 -12 -29.5 -25t-40.5 -23.5t-53 -17.5t-66 -7h-229v174z" />
    <glyph glyph-name="K" unicode="K" horiz-adv-x="793" 
d="M50 700h226v-700h-226v700zM551 0l-212 271q-31 39 -31 88q0 20 6 41.5t16 35.5l188 264h268l-243 -289q-8 -9 -14.5 -22.5t-6.5 -27.5q0 -11 5 -28t24 -37l272 -296h-272z" />
    <glyph glyph-name="L" unicode="L" horiz-adv-x="666" 
d="M157 0q-20 0 -41 5t-35 17q-12 10 -21.5 28t-9.5 40v610h226v-483q0 -6 1.5 -16.5t9.5 -17.5q7 -6 17 -7.5t19 -1.5h363v-174h-529z" />
    <glyph glyph-name="M" unicode="M" horiz-adv-x="1071" 
d="M670 86q-6 -19 -14 -36t-22.5 -30t-38 -20.5t-60.5 -7.5t-60.5 7.5t-38 20.5t-22.5 30t-14 36l-108 338q-3 10 -6.5 17.5t-7.5 7.5q-7 0 -7.5 -9t-0.5 -14l7 -426h-227v585q0 46 22 71t50.5 36.5t57 13.5t42.5 2q22 0 47.5 -3t50.5 -14.5t46 -34.5t35 -64l113 -340
q1 -3 3 -8t5 -10.5t6.5 -9.5t6.5 -4t6.5 4t6.5 9.5t5 10.5t3 8l113 340q13 41 34.5 64t46.5 34.5t50.5 14.5t48.5 3q60 0 94 -13t51.5 -32t22 -40.5t4.5 -37.5v-585h-228l8 426q0 14 -3 18.5t-6 4.5t-6 -5.5t-8 -19.5z" />
    <glyph glyph-name="N" unicode="N" horiz-adv-x="864" 
d="M814 117q0 -9 -3 -30t-18 -42t-45.5 -37t-85.5 -16q-20 0 -40 2t-39.5 9t-38 21t-34.5 37l-253 357q-4 5 -9 11t-10 6q-2 0 -8 -2.5t-6 -17.5v-415h-174v584q0 34 13 57.5t35 38.5t50.5 21.5t58.5 6.5q14 0 33 -1.5t39 -8t40 -19.5t36 -36l255 -360q4 -5 8.5 -11t10.5 -6
q8 0 9.5 6.5t1.5 10.5v417h174v-583z" />
    <glyph glyph-name="O" unicode="O" horiz-adv-x="830" 
d="M262 350q0 -42 4.5 -74.5t21.5 -58.5q11 -17 24.5 -27.5t29 -15.5t34 -6.5t39.5 -1.5q22 0 40.5 1.5t33.5 6.5t28 15.5t25 27.5q19 28 22.5 59.5t3.5 73.5q0 23 -0.5 41t-2.5 33.5t-7.5 29.5t-15.5 29q-23 34 -53 42.5t-74 8.5q-22 0 -40 -1.5t-34 -7t-29 -15.5t-24 -27
q-19 -28 -22.5 -58.5t-3.5 -74.5zM415 708q40 0 82 -1.5t82.5 -8.5t77 -21.5t64.5 -40.5t44 -61t24 -73t9.5 -77.5t1.5 -74.5t-1.5 -74t-9.5 -77t-24 -73t-44 -62q-28 -26 -64.5 -40.5t-77 -21.5t-83 -8.5t-81.5 -1.5t-81.5 1.5t-83 8.5t-77 21.5t-64.5 40.5
q-29 27 -44.5 62t-23.5 73t-9.5 77t-1.5 74t1.5 74.5t9.5 77.5t23.5 73t44.5 61q28 26 64.5 40.5t77 21.5t82.5 8.5t82 1.5z" />
    <glyph glyph-name="P" unicode="P" horiz-adv-x="787" 
d="M438 376q21 0 41 1.5t34 16.5q18 20 18 61q0 14 -3 29t-17 26q-14 12 -32.5 14t-38.5 2h-125q-14 0 -21.5 -4.5t-11.5 -10.5t-5 -13t-1 -13v-109h162zM50 0v568q0 22 5 49t23 47q11 13 34 24.5t59 11.5h387q42 0 80 -8.5t67 -40.5q25 -26 38.5 -70.5t13.5 -120.5
q0 -18 -1.5 -47.5t-8 -61.5t-19 -62t-34.5 -49q-25 -21 -59.5 -29.5t-63.5 -8.5h-295v-202h-226z" />
    <glyph glyph-name="Q" unicode="Q" horiz-adv-x="845" 
d="M262 354q0 -42 4.5 -74.5t21.5 -58.5q11 -17 24.5 -27.5t29 -15.5t34 -6.5t39.5 -1.5q22 0 40.5 1.5t33.5 6.5t28 15.5t25 27.5q19 28 22.5 59.5t3.5 73.5q0 23 -0.5 41t-2.5 33.5t-7.5 29.5t-15.5 29q-23 34 -53 42.5t-74 8.5q-22 0 -40 -1.5t-34 -7t-29 -15.5t-24 -27
q-19 -28 -22.5 -58.5t-3.5 -74.5zM415 708q40 0 82 -1.5t82.5 -8.5t77 -21.5t64.5 -40.5q27 -24 42.5 -56.5t23.5 -68.5t10.5 -72.5t2.5 -69.5q0 -44 -2.5 -75t-7.5 -54t-11.5 -39.5t-13.5 -30.5v-4l78 8v-174h-428q-35 0 -77 1.5t-84.5 7.5t-80.5 19t-64 36
q-29 25 -44.5 60.5t-23.5 75t-9.5 79t-1.5 71.5q0 35 1.5 74.5t9.5 77.5t23.5 73t44.5 61q28 26 64.5 40.5t77 21.5t82.5 8.5t82 1.5z" />
    <glyph glyph-name="R" unicode="R" horiz-adv-x="789" 
d="M50 566q0 24 4 51.5t23 48.5q20 22 47 28t47 6h381q16 0 38 -1t45 -7.5t45 -20.5t39 -39q23 -34 29.5 -77t6.5 -83q0 -12 -0.5 -32.5t-3.5 -44.5t-8 -49t-14 -46q-20 -47 -54.5 -67t-75.5 -20h-30v-4l200 -209h-272l-135 182q-17 23 -32.5 46t-15.5 49v15q0 35 28.5 57
t72.5 22h36q15 0 33 3.5t30 17.5q8 11 11.5 27.5t3.5 30.5q0 29 -6.5 42t-10.5 17q-13 14 -30 15.5t-33 1.5h-125q-10 0 -18.5 -1.5t-16.5 -9.5q-11 -10 -12 -20.5t-1 -23.5v-471h-226v566z" />
    <glyph glyph-name="S" unicode="S" horiz-adv-x="702" 
d="M27 174h388q25 0 32 7t7 15q0 17 -14 23.5t-31 11.5l-271 76q-31 8 -50 23.5t-30 29.5q-25 33 -31.5 75t-6.5 81q0 33 6.5 71t37.5 69q17 17 46 30.5t74 13.5h462v-174h-356q-20 0 -27 -1t-10 -3q-11 -6 -11 -19q0 -17 19.5 -25t39.5 -13l236 -63q23 -6 50.5 -18
t46.5 -31q16 -16 26 -36.5t14.5 -42t6 -42.5t1.5 -39q0 -31 -5 -69t-29 -70q-15 -20 -32 -31t-35.5 -16t-37 -6t-36.5 -1h-480v174z" />
    <glyph glyph-name="T" unicode="T" horiz-adv-x="706" 
d="M240 0v526h-250v174h726v-174h-250v-526h-226z" />
    <glyph glyph-name="U" unicode="U" horiz-adv-x="794" 
d="M276 700v-402q0 -23 5 -51t30 -48q15 -12 38.5 -18.5t47.5 -6.5t47.5 6.5t38.5 18.5q13 10 20 23t10.5 26.5t4 26t0.5 23.5v402h226v-420q0 -27 -2.5 -54t-10.5 -54t-22.5 -52.5t-37.5 -48.5q-27 -27 -59 -42.5t-67.5 -23.5t-73 -10.5t-74.5 -2.5q-38 0 -75 2.5
t-72.5 10.5t-67.5 23.5t-59 42.5q-23 23 -37.5 48.5t-22.5 52.5t-10.5 54t-2.5 54v420h226z" />
    <glyph glyph-name="V" unicode="V" horiz-adv-x="778" 
d="M376 225q3 -9 7 -12t6 -3t6 3t7 12l164 475h242l-243 -595q-9 -23 -22.5 -43.5t-33.5 -36t-49 -24.5t-71 -9t-71 9t-49.5 24.5t-33.5 36t-22 43.5l-243 595h242z" />
    <glyph glyph-name="W" unicode="W" horiz-adv-x="1148" 
d="M445 632q8 27 23.5 42t34 22.5t37.5 9.5t34 2t34 -2t37.5 -9.5t34 -22.5t23.5 -42l105 -358q1 -4 4.5 -10.5t6.5 -6.5q2 0 5.5 3.5t7.5 17.5l116 422h230l-171 -563q-14 -45 -29.5 -73t-36 -44t-46.5 -22t-60 -6q-40 0 -67 8.5t-45.5 24t-30 38t-19.5 50.5l-89 304
q-2 4 -4 11t-6 7t-6 -7t-4 -11l-89 -304q-8 -28 -19.5 -50.5t-30 -38t-45.5 -24t-67 -8.5q-34 0 -60 6t-46.5 22t-36.5 44t-29 73l-171 563h230l116 -422q4 -14 7.5 -17.5t5.5 -3.5q3 0 6.5 6.5t4.5 10.5z" />
    <glyph glyph-name="X" unicode="X" horiz-adv-x="734" 
d="M494 0l-127 197l-127 -197h-270l265 355l-257 345h270l119 -187l119 187h270l-257 -345l265 -355h-270z" />
    <glyph glyph-name="Y" unicode="Y" horiz-adv-x="772" 
d="M560 700h242l-303 -506v-194h-226v194l-303 506h242l174 -302z" />
    <glyph glyph-name="Z" unicode="Z" horiz-adv-x="675" 
d="M128 0q-15 0 -36.5 1.5t-41.5 10t-34 27t-14 53.5q0 27 7 49t17.5 40t22 31.5t21.5 22.5l278 265q2 2 6.5 6t4.5 9q0 4 -5 7.5t-13 3.5h-308v174h543q18 0 35.5 -3.5t31 -13.5t22 -28t8.5 -48q0 -26 -5 -44.5t-13 -33t-18.5 -26t-22.5 -22.5l-297 -283q-4 -4 -7 -6t-3 -7
q0 -3 2 -7t10 -4h347v-174h-538z" />
    <glyph glyph-name="bracketleft" unicode="[" horiz-adv-x="411" 
d="M190 -34h191v-130h-331v872h331v-130h-191v-612z" />
    <glyph glyph-name="backslash" unicode="\" horiz-adv-x="518" 
d="M-10 740h100l438 -910h-100z" />
    <glyph glyph-name="bracketright" unicode="]" horiz-adv-x="411" 
d="M221 578h-191v130h331v-872h-331v130h191v612z" />
    <glyph glyph-name="asciicircum" unicode="^" horiz-adv-x="612" 
d="M344 622q-7 5 -18 10t-18 5t-18 -5t-18 -10l-151 -117l-71 82l193 147q12 9 30 15t33 6t33 -6t30 -15l193 -147l-68 -82z" />
    <glyph glyph-name="underscore" unicode="_" horiz-adv-x="552" 
d="M30 158h492v-158h-492v158z" />
    <glyph glyph-name="grave" unicode="`" horiz-adv-x="339" 
d="M309 678l-87 -108l-192 158l87 109z" />
    <glyph glyph-name="a" unicode="a" horiz-adv-x="616" 
d="M251 208q-5 0 -13.5 -1.5t-15.5 -7.5q-5 -5 -6.5 -11.5t-1.5 -13.5q0 -6 1.5 -12t6.5 -11t12.5 -7t14.5 -2h102q8 0 16 1.5t13 5.5q7 5 8.5 12t1.5 14v33h-139zM405 530q49 0 81.5 -14.5t49.5 -31.5q16 -16 26 -35.5t15.5 -39t7 -39t1.5 -35.5v-222q0 -21 -4 -43.5
t-22 -41.5q-19 -20 -43 -24t-47 -4h-312q-25 0 -50.5 4t-46.5 24q-15 14 -24 33t-13 39.5t-5 40.5t-1 36q0 17 1.5 35.5t6 36.5t13.5 34t25 28q22 17 46.5 20t47.5 3h232v8q0 7 -1.5 16.5t-8.5 18.5q-11 15 -28 18t-32 3h-266v132h351z" />
    <glyph glyph-name="b" unicode="b" horiz-adv-x="611" 
d="M226 190q0 -7 1 -19t9 -20q8 -7 18 -8t17 -1h40q29 0 44.5 9.5t23.5 26.5q5 10 9.5 30t4.5 60q0 38 -5 57t-8 26q-6 14 -15 22.5t-18 12.5t-17.5 5t-14.5 1h-89v-202zM226 700v-170h142q21 0 46 -2t50.5 -10.5t49.5 -25.5t43 -48q26 -42 31 -89.5t5 -88.5q0 -66 -9 -108
t-26 -70q-18 -30 -42 -47.5t-49.5 -26.5t-51 -11.5t-44.5 -2.5h-233q-20 0 -42.5 5t-42.5 26q-14 14 -18.5 30t-4.5 35v604h196z" />
    <glyph glyph-name="c" unicode="c" horiz-adv-x="551" 
d="M227 0q-17 0 -37.5 2t-42.5 8.5t-43 19t-39 33.5q-31 36 -39 85t-8 110q0 29 1.5 58.5t7.5 57.5t17.5 54t32.5 47q31 32 71.5 43.5t88.5 11.5h285v-134h-194q-25 0 -42.5 -5t-29 -14t-18.5 -20.5t-11 -24.5q-5 -16 -7 -33t-2 -37q0 -46 6 -65.5t10 -26.5
q9 -15 22.5 -22.5t28 -10.5t28.5 -3h26h194v-134h-306z" />
    <glyph glyph-name="d" unicode="d" horiz-adv-x="610" 
d="M298 394q-24 0 -39.5 -10t-23.5 -22q-14 -20 -17.5 -46.5t-3.5 -48.5q0 -38 3.5 -58.5t10.5 -33.5q14 -26 35.5 -32.5t34.5 -6.5h47q14 0 20.5 3t8.5 5q8 7 9 18.5t1 17.5v214h-86zM580 700v-588q0 -17 -3 -39t-14 -37q-9 -13 -20 -20t-23 -10.5t-24.5 -4.5t-23.5 -1
h-263q-62 0 -104.5 26t-62.5 76q-16 38 -20 82.5t-4 93.5t6 94t33 83q17 24 39 39t45.5 23t47 10.5t44.5 2.5h151v170h196z" />
    <glyph glyph-name="e" unicode="e" horiz-adv-x="605" 
d="M359 334q21 0 26.5 10t5.5 18q0 11 -7 21t-29 15q-12 2 -28 3t-24 1q-17 0 -37 -1.5t-31 -7.5q-15 -8 -19 -23.5t-2 -35.5h145zM233 0q-30 0 -57 1t-51 7.5t-44 20.5t-36 40q-17 29 -22 73.5t-5 116.5v69t3.5 61.5t12.5 52.5t27 42q18 19 45.5 29.5t60.5 15.5t69.5 6
t74.5 1q81 0 134 -5t85 -31q19 -15 30.5 -37t17.5 -46t7.5 -48.5t1.5 -46.5q0 -26 -4.5 -52.5t-27.5 -44.5q-13 -11 -25.5 -13t-26.5 -2h-289q-1 -11 1.5 -23t7.5 -20q13 -20 37.5 -22.5t50.5 -2.5h257v-142h-335z" />
    <glyph glyph-name="f" unicode="f" horiz-adv-x="431" 
d="M83 0v390h-79v140h79q2 36 18 73.5t54 62.5q13 9 34 17t53 14t77 9t108 2v-122q-33 0 -54.5 -1t-35.5 -2.5t-22 -4t-14 -5.5q-17 -10 -20 -23t-2 -20h148v-140h-148v-390h-196z" />
    <glyph glyph-name="g" unicode="g" horiz-adv-x="612" 
d="M386 346q0 11 -2.5 19t-12.5 15q-8 5 -15.5 6.5t-15.5 1.5h-22q-21 0 -42 -4.5t-37 -24.5q-7 -8 -14 -29.5t-7 -69.5q0 -35 5.5 -57t16.5 -34q19 -22 44 -24.5t46 -2.5h56v204zM55 -52h236q16 0 36.5 1.5t35.5 12.5q18 15 23 38h-169q-21 0 -42.5 1.5t-42 8.5t-39.5 20
t-34 37q-22 34 -31.5 82.5t-9.5 117.5q0 39 3 68.5t9.5 53t16.5 42t25 35.5q30 35 68 49.5t100 14.5h218q23 0 48 -3.5t45 -20.5t25.5 -40t5.5 -40v-367q0 -53 -8 -95t-34 -74q-30 -38 -78.5 -54t-109.5 -16h-297v128z" />
    <glyph glyph-name="h" unicode="h" horiz-adv-x="625" 
d="M30 700h196v-170h117q22 0 45 -0.5t46 -4t45 -11.5t43 -23q37 -27 55 -66.5t18 -78.5v-346h-196v270q0 19 -4.5 44t-25.5 47q-18 20 -39.5 25.5t-41.5 5.5h-62v-392h-196v700z" />
    <glyph glyph-name="i" unicode="i" horiz-adv-x="256" 
d="M30 583v117h196v-117h-196zM30 530h196v-530h-196v530z" />
    <glyph glyph-name="j" unicode="j" horiz-adv-x="336" 
d="M110 583v117h196v-117h-196zM-40 -44q43 -1 66.5 4t43.5 21q19 15 29.5 37t10.5 64v448h196v-489q0 -17 -2 -40t-10 -47t-23.5 -46.5t-41.5 -39.5q-38 -25 -101 -32.5t-168 -5.5v126z" />
    <glyph glyph-name="k" unicode="k" horiz-adv-x="635" 
d="M30 0v700h196v-700h-196zM429 0l-144 190q-22 29 -26.5 50.5t-4.5 34.5q0 29 9.5 46.5t22.5 36.5l121 172h212l-161 -211q-6 -8 -10 -19t-4 -19q0 -11 6 -24t14 -24l185 -233h-220z" />
    <glyph glyph-name="l" unicode="l" horiz-adv-x="256" 
d="M30 700h196v-700h-196v700z" />
    <glyph glyph-name="m" unicode="m" horiz-adv-x="860" 
d="M30 435q0 12 3.5 28t15.5 31q20 26 46.5 31t58.5 5h455q45 0 90 -12.5t75 -40.5q28 -26 42 -66t14 -77v-334h-196v294q0 17 -3.5 38.5t-17.5 36.5q-8 9 -24 16t-39 7h-22v-392h-196v392h-75q-13 0 -18.5 -3t-7.5 -5q-3 -4 -4 -11.5t-1 -15.5v-357h-196v435z" />
    <glyph glyph-name="n" unicode="n" horiz-adv-x="626" 
d="M30 435q0 15 3 32.5t19 32.5q11 11 26 17t31 9t31.5 3.5t27.5 0.5h184q46 0 91.5 -7.5t86.5 -39.5q22 -18 35 -38t20 -41t9 -41t2 -37v-326h-196v269q0 28 -4 50.5t-18 40.5q-13 17 -32 24.5t-49 7.5h-35q-6 0 -13.5 -1.5t-13.5 -6.5q-8 -7 -8.5 -14.5t-0.5 -15.5v-354
h-196v435z" />
    <glyph glyph-name="o" unicode="o" horiz-adv-x="648" 
d="M218 265q0 -44 6.5 -64.5t12.5 -28.5q1 -2 6.5 -8t16 -12t26 -11t38.5 -5q40 0 59.5 13t26.5 23q12 17 16 40.5t4 52.5q0 42 -5.5 63t-13.5 32q-8 10 -27 22t-60 12t-60 -12t-27 -22q-5 -8 -12 -28t-7 -67zM324 536q31 0 64 -1.5t64 -6.5t58.5 -16t49.5 -30
q25 -22 39 -51.5t21 -59.5t8.5 -58t1.5 -48t-1.5 -48t-8.5 -58t-21 -59.5t-39 -51.5q-22 -19 -49.5 -30t-58.5 -16t-64 -6.5t-64 -1.5q-32 0 -64.5 1.5t-63.5 6.5t-58.5 16t-49.5 30q-25 22 -39 51.5t-21 59.5t-8.5 58t-1.5 48t1.5 48t8.5 58t21 59.5t39 51.5q22 19 49.5 30
t58.5 16t63.5 6.5t64.5 1.5z" />
    <glyph glyph-name="p" unicode="p" horiz-adv-x="615" 
d="M312 142q32 0 49 14t24 27q8 16 10 36.5t2 46.5q0 23 -1.5 42t-7.5 35t-16 25t-20.5 13.5t-20 5.5t-13.5 1h-69q-3 0 -8.5 -2.5t-7.5 -4.5q-7 -7 -7 -18v-221h86zM226 -170h-196v599q0 23 6.5 44t29.5 38q18 13 37 16t38 3h246q13 0 31.5 -1.5t39.5 -7t42.5 -16.5
t39.5 -30q20 -21 31.5 -46.5t17 -52t7 -51.5t1.5 -44q0 -17 -1 -43.5t-5 -55.5t-13 -58t-24 -51q-18 -26 -41 -40.5t-48 -21.5t-49 -9t-45 -2h-145v-170z" />
    <glyph glyph-name="q" unicode="q" horiz-adv-x="615" 
d="M389 351q0 8 -2 16.5t-10 15.5t-17 8t-18 1h-23q-29 0 -52 -8t-36 -32q-9 -17 -11 -40t-2 -52q0 -21 1.5 -40.5t9.5 -36.5q7 -15 17 -23.5t21 -12.5t21 -4.5t17 -0.5h84v209zM389 -170v170h-182q-49 0 -86.5 20.5t-58.5 47.5q-29 37 -36.5 83.5t-7.5 98.5q0 26 1.5 55
t6.5 57.5t14.5 55t25.5 47.5q14 19 32.5 31.5t37.5 20t37 10.5t33 3h272q29 0 54 -11t36 -27q6 -8 9.5 -19t5 -21.5t2 -20t0.5 -13.5v-588h-196z" />
    <glyph glyph-name="r" unicode="r" horiz-adv-x="419" 
d="M30 307q0 19 1.5 41.5t8 46t19 45.5t34.5 40t48 28t52.5 15t51 6t44.5 1h130v-138h-68q-29 0 -54.5 -6.5t-44.5 -31.5q-17 -23 -21.5 -50.5t-4.5 -50.5v-253h-196v307z" />
    <glyph glyph-name="s" unicode="s" horiz-adv-x="552" 
d="M24 142h289q6 0 12 4q5 3 5 10q0 5 -3 7.5t-6 4.5q-5 3 -17 6.5t-43 14.5l-114 37q-36 12 -65 28.5t-44 41.5q-11 19 -15.5 44t-4.5 45q0 25 5.5 49.5t19.5 45.5q21 32 51 41t72 9h354v-136h-288q-5 0 -11 0.5t-12 -1.5q-4 -1 -6.5 -2.5t-2.5 -6.5q0 -6 3 -8t8 -4
q9 -3 13 -4.5t7 -3t7 -3t13 -4.5l134 -45q42 -14 72.5 -29t49.5 -43q19 -27 23 -56t4 -46q0 -29 -8.5 -60t-35.5 -53q-21 -17 -44 -21t-43 -4h-379v142z" />
    <glyph glyph-name="t" unicode="t" horiz-adv-x="418" 
d="M304 0q-15 0 -34.5 0.5t-41.5 4t-45 10.5t-43 21q-33 23 -50 58.5t-17 71.5v228h-75v136h75v170h196v-170h151v-136h-151v-121q0 -29 6 -57.5t28 -48.5q20 -18 43.5 -21.5t42.5 -3.5h29v-142h-114z" />
    <glyph glyph-name="u" unicode="u" horiz-adv-x="634" 
d="M226 530v-264q0 -38 5.5 -58.5t13.5 -32.5t19 -18.5t22 -9.5t22 -4t20 -1h36q23 0 34 11q8 8 9 16t1 16v345h196v-422q0 -23 -5.5 -44.5t-27.5 -39.5q-20 -17 -45 -20.5t-41 -3.5h-240q-57 0 -92.5 14t-55.5 31q-41 34 -54 85t-13 111v289h196z" />
    <glyph glyph-name="v" unicode="v" horiz-adv-x="628" 
d="M301 224q2 -5 5 -11.5t8 -6.5t8 6.5t5 11.5l121 306h204l-224 -488q-8 -17 -20.5 -26.5t-28 -14t-32.5 -6t-33 -1.5t-33 1.5t-32.5 6t-28.5 14t-20 26.5l-224 488h204z" />
    <glyph glyph-name="w" unicode="w" horiz-adv-x="902" 
d="M242 225q1 -3 3.5 -9.5t6.5 -6.5t6 6.5t3 8.5l78 256q3 9 8.5 18.5t18 18t33 14t52.5 5.5t52.5 -5.5t33 -14t18 -18t8.5 -18.5l78 -256q1 -2 3 -8.5t6 -6.5t6.5 6.5t3.5 9.5l80 305h186l-121 -430q-6 -22 -15 -41.5t-24.5 -33.5t-39.5 -22.5t-61 -8.5q-36 0 -60.5 6.5
t-40 17.5t-23.5 25t-12 28l-70 231q-2 5 -3.5 10.5t-4.5 5.5t-4.5 -5.5t-3.5 -10.5l-70 -231q-4 -14 -12 -28t-23.5 -25t-40 -17.5t-60.5 -6.5q-37 0 -61 8.5t-39.5 22.5t-24.5 33.5t-15 41.5l-121 430h186z" />
    <glyph glyph-name="x" unicode="x" horiz-adv-x="604" 
d="M400 0l-98 150l-98 -150h-228l211 272l-194 258h223l86 -136l86 136h223l-194 -258l211 -272h-228z" />
    <glyph glyph-name="y" unicode="y" horiz-adv-x="634" 
d="M341 -171h-196l83 171l-252 530h200l139 -336l147 336h196z" />
    <glyph glyph-name="z" unicode="z" horiz-adv-x="540" 
d="M89 0q-23 0 -39 8.5t-27 22.5t-16 32.5t-5 38.5q0 39 13 62t36 41l229 175q8 6 8 9q0 5 -10 5h-257v136h419q7 0 23 -2t32.5 -11.5t29.5 -29t13 -54.5q0 -44 -15 -68t-33 -38l-222 -170q-8 -6 -8 -11q0 -4 3 -4h6h260v-142h-440v0z" />
    <glyph glyph-name="braceleft" unicode="{" horiz-adv-x="329" 
d="M151 280q18 -6 28 -17t15.5 -23.5t6.5 -26.5t1 -27v-110q0 -4 0.5 -11.5t2.5 -16.5t7.5 -18.5t14.5 -16.5q11 -9 33 -14t39 -5v-130q-15 -1 -34 0t-38.5 3.5t-38 7t-33.5 10.5q-28 12 -45 28.5t-27 35t-13.5 37t-4.5 33.5q0 4 -0.5 13t-1 19t-1 19.5t-0.5 15.5v89
q0 26 -13 45t-39 21v86q26 2 39 21t13 45v89q0 6 0.5 15.5t1 19.5t1 19t0.5 13q1 15 4.5 33.5t13.5 37t27 35t45 28.5q15 6 33.5 10.5t38 7t38.5 3.5t34 0v-130q-17 0 -39 -5t-33 -14q-9 -8 -14.5 -17t-7.5 -18t-2.5 -16.5t-0.5 -11.5v-110q0 -13 -1 -27t-6.5 -26.5
t-15.5 -23.5t-28 -17v-8z" />
    <glyph glyph-name="bar" unicode="|" horiz-adv-x="200" 
d="M50 740h100v-910h-100v910z" />
    <glyph glyph-name="braceright" unicode="}" horiz-adv-x="329" 
d="M178 288q-18 6 -28 17t-15.5 23.5t-6.5 26.5t-1 27v110q0 4 -0.5 11.5t-2.5 16.5t-7.5 18t-14.5 17q-11 9 -33 14t-39 5v130q15 1 33.5 0t38 -3.5t38.5 -7t34 -10.5q28 -12 45 -28.5t27 -35t13.5 -37t4.5 -33.5q0 -4 0.5 -13t1 -19t1 -19.5t0.5 -15.5v-89q0 -26 13 -45
t39 -21v-86q-26 -2 -39 -21t-13 -45v-89q0 -6 -0.5 -15.5t-1 -19.5t-1 -19t-0.5 -13q-1 -15 -4.5 -33.5t-13.5 -37t-27 -35t-45 -28.5q-15 -6 -34 -10.5t-38.5 -7t-38 -3.5t-33.5 0v130q17 0 39 5t33 14q9 7 14.5 16.5t7.5 18.5t2.5 16.5t0.5 11.5v110q0 13 1 27t6.5 26.5
t15.5 23.5t28 17v8z" />
    <glyph glyph-name="asciitilde" unicode="~" horiz-adv-x="644" 
d="M50 399q18 25 42 47t46 34q19 11 40 16.5t40 5.5q22 0 41 -5t33 -11l55 -23q13 -5 27.5 -9.5t35.5 -4.5q25 0 41 6.5t30 18.5q20 19 33 41l80 -66q-15 -22 -37.5 -46t-47.5 -39q-23 -15 -48.5 -22t-50.5 -7t-44.5 6t-33.5 12l-47 21q-6 3 -21 7t-40 4q-17 0 -29.5 -4
t-28.5 -15q-11 -8 -19.5 -17t-16.5 -19z" />
    <glyph glyph-name="dagger" unicode="&#x2020;" horiz-adv-x="507" 
d="M186 -170v554h-156v130h156v186h136v-186h155v-130h-155v-554h-136z" />
    <glyph glyph-name="degree" unicode="&#xb0;" horiz-adv-x="298" 
d="M90 649q0 -25 17 -42t42 -17t42 17t17 42t-17 42t-42 17t-42 -17t-17 -42zM30 649q0 25 9.5 46.5t25.5 37.5t37.5 25.5t46.5 9.5t46.5 -9.5t37.5 -25.5t25.5 -37.5t9.5 -46.5t-9.5 -46.5t-25.5 -37.5t-37.5 -25.5t-46.5 -9.5t-46.5 9.5t-37.5 25.5t-25.5 37.5t-9.5 46.5z
" />
    <glyph glyph-name="sterling" unicode="&#xa3;" horiz-adv-x="723" 
d="M220 0q-17 0 -41.5 4t-44.5 22q-22 20 -26.5 44t-4.5 41v238h-73v92h73q-2 60 5.5 106.5t33.5 80.5q15 19 36.5 33t45 22.5t48.5 12.5t48 4h208v-174h-115q-23 0 -45.5 -2.5t-32.5 -20.5q-2 -2 -4.5 -14.5t-1.5 -47.5h199v-92h-199v-128q0 -10 1 -20t8 -17q2 -2 9.5 -6
t25.5 -4h380v-174h-533z" />
    <glyph glyph-name="section" unicode="&#xa7;" horiz-adv-x="526" 
d="M240 206q16 -2 27 0t23 6q18 5 31 14t13 33q0 13 -4.5 24.5t-13.5 18.5l-38 28q-10 1 -23.5 0t-24.5 -5q-17 -7 -27.5 -21.5t-10.5 -29.5q0 -12 4.5 -25t16.5 -22l27 -21v0zM109 -43h157q22 0 39.5 1.5t17.5 16.5q0 7 -8.5 14t-26.5 23l-178 152q-20 17 -40 46.5
t-20 73.5q0 37 16.5 68t40.5 48q14 10 31 16t34 8l-67 58q-27 23 -36.5 50t-9.5 50q0 26 9.5 47t24.5 36q27 26 56.5 30.5t55.5 4.5h211v-130h-176h-27q-12 0 -12 -13q0 -5 6 -11t24 -21l180 -153q12 -10 23.5 -22.5t20.5 -28t15 -35.5t6 -45q0 -38 -17.5 -68t-43.5 -44
q-16 -9 -34.5 -13t-33.5 -4l59 -52q37 -32 48.5 -63t11.5 -53q0 -32 -14 -55.5t-36 -37.5q-26 -17 -53.5 -20.5t-48.5 -3.5h-205v130z" />
    <glyph glyph-name="bullet" unicode="&#x2022;" horiz-adv-x="440" 
d="M50 350q0 35 13.5 66t36.5 54t54 36.5t66 13.5t66 -13.5t54 -36.5t36.5 -54t13.5 -66t-13.5 -66t-36.5 -54t-54 -36.5t-66 -13.5t-66 13.5t-54 36.5t-36.5 54t-13.5 66z" />
    <glyph glyph-name="paragraph" unicode="&#xb6;" horiz-adv-x="762" 
d="M333 570h-69q-17 0 -31 -3t-27 -19q-9 -11 -12.5 -25t-3.5 -29q0 -4 1.5 -18t8.5 -26q11 -21 27.5 -26t33.5 -5h72v151zM531 -170v740h-62v-740h-136v459h-94q-21 0 -41.5 2t-39.5 8t-36.5 18t-33.5 33q-23 30 -30.5 65.5t-7.5 72.5q0 22 2.5 46t9.5 47.5t20 44.5t34 38
q32 26 68.5 31t73.5 5h474v-130h-65v-740h-136z" />
    <glyph glyph-name="registered" unicode="&#xae;" horiz-adv-x="534" 
d="M155 389v187q0 3 0.5 10t5.5 12q4 5 14.5 6t36.5 1h88q22 0 34 -2t19 -6q17 -11 20 -31t3 -37q0 -11 -1 -23.5t-6 -24t-14.5 -19t-25.5 -7.5h-11l62 -66h-86l-38 52q-6 8 -10 14.5t-4 19.5q0 14 6.5 23t19.5 9h12q13 0 18 3q2 2 4 7t2 7v11q0 2 -1.5 6.5t-3.5 6.5
q-4 5 -12 5h-11h-28q-3 0 -10 -0.5t-9 -2.5q-2 -1 -3 -5.5t-1 -15.5v-140h-70zM267 337q5 0 18 0.5t29 3.5t33 8.5t29 15.5q15 12 23 29t12 34.5t5 33.5t1 26q0 14 -1.5 31.5t-4.5 34t-8.5 31.5t-14.5 25q-11 12 -26 19t-32 10t-33.5 4t-29.5 1q-12 0 -28 -0.5t-33 -4
t-32.5 -10.5t-27.5 -19q-11 -11 -16.5 -26.5t-8.5 -31.5t-3.5 -31.5t-0.5 -26.5q0 -48 6 -73t16 -39q17 -23 51.5 -34t76.5 -11zM267 275q-23 0 -47 1.5t-47 8t-45 20t-40 36.5q-14 18 -21.5 37.5t-11.5 39t-4.5 38.5t-0.5 36q0 16 1 36t5 41t12.5 41.5t24.5 38.5
q18 21 41 32.5t46.5 17t46 6.5t40.5 1q41 0 85 -7.5t79 -40.5q19 -18 29.5 -39.5t16 -44t6.5 -44t1 -38.5q0 -43 -9 -87t-40 -77q-17 -18 -37 -29t-42 -16t-44.5 -6.5t-44.5 -1.5z" />
    <glyph glyph-name="copyright" unicode="&#xa9;" horiz-adv-x="808" 
d="M373 177q-29 0 -58 6t-53 38q-20 26 -26.5 61t-6.5 72q0 35 4.5 70.5t31.5 66.5q25 29 52 36t59 7h152v-87h-104q-17 0 -34.5 -4t-29.5 -25q-7 -12 -8 -27.5t-1 -36.5q0 -14 0.5 -30.5t8.5 -30.5q10 -19 23.5 -23t32.5 -4h125v-89h-168zM165 351q0 -31 2.5 -62
t10.5 -59.5t23.5 -53t41.5 -41.5q22 -15 49.5 -23t51.5 -12t41 -4.5t19 -0.5t19 0.5t41 4.5t51 12t50 23q26 17 41.5 41.5t23.5 53t10.5 59.5t2.5 62q0 30 -2.5 61t-10.5 60t-23.5 53.5t-41.5 42.5q-31 20 -74 28.5t-87 8.5t-87 -8.5t-74 -28.5q-26 -18 -41.5 -42.5
t-23.5 -53.5t-10.5 -60t-2.5 -61zM404 708q33 0 62 -1t57 -6t55 -15.5t56 -29.5q43 -29 67.5 -64t37 -74.5t16 -81.5t3.5 -85q0 -42 -3.5 -84.5t-16 -82.5t-37.5 -76t-67 -64q-55 -36 -111.5 -44t-118.5 -8t-118.5 8t-111.5 44q-42 28 -67 64t-37.5 76t-16 82.5t-3.5 84.5
q0 43 3.5 85t16 81.5t37 74.5t67.5 64q28 19 55.5 29.5t55.5 15.5t57 6t62 1z" />
    <glyph glyph-name="trademark" unicode="&#x2122;" horiz-adv-x="1068" 
d="M803 339q-4 -9 -8 -17.5t-11 -15t-19 -10.5t-32 -4q-11 0 -20.5 0.5t-17.5 5t-15.5 14t-15.5 27.5l-96 215q-1 1 -3.5 6.5t-7.5 5.5q-2 0 -5 -1.5t-3 -9.5v-259h-99v349q0 12 3 23.5t12.5 19.5t26.5 13t45 5q9 0 20.5 -1.5t23 -6t21.5 -13t17 -23.5l104 -233q2 -3 4.5 -8
t5.5 -5t5.5 5t4.5 8l104 233q7 16 19 25t25 13t23.5 5t15.5 1q15 0 30.5 -2t28.5 -8.5t21 -18.5t8 -32v-349h-99v259q0 8 -3 9.5t-5 1.5q-5 0 -7.5 -5.5t-3.5 -6.5zM161 296v308h-161v97h420v-97h-160v-308h-99z" />
    <glyph glyph-name="notequal" unicode="&#x2260;" 
d="M303 151l-91 -161h-100l91 161h-153v130h227l42 74h-269v130h343l88 155h100l-88 -155h165v-130h-239l-42 -74h281v-130h-355z" />
    <glyph glyph-name="infinity" unicode="&#x221e;" horiz-adv-x="896" 
d="M269 278q28 0 55.5 22t44.5 48q-3 6 -11.5 17.5t-21.5 23t-29.5 20t-37.5 8.5t-35 -7t-22.5 -17.5t-12 -22.5t-3.5 -22q0 -17 7.5 -30t18.5 -22t23.5 -13.5t23.5 -4.5zM627 417q-20 0 -37 -9t-29.5 -20.5t-21.5 -23t-12 -16.5q8 -12 19.5 -24.5t24.5 -22.5t27 -16.5
t29 -6.5q30 0 51.5 20.5t21.5 50.5q0 26 -18.5 47t-54.5 21zM452 243q-22 -29 -48 -49t-53.5 -33.5t-55.5 -19.5t-53 -6q-47 0 -85.5 15.5t-67 44t-44 67.5t-15.5 86t15.5 86t43.5 67.5t66.5 44t83.5 15.5q62 0 115.5 -30t91.5 -78q30 38 61.5 59.5t59 32.5t50 13.5
t36.5 2.5q48 0 87 -15.5t67 -44t43.5 -67.5t15.5 -85q0 -47 -16 -86t-44 -67.5t-66.5 -44.5t-84.5 -16q-23 0 -49.5 5.5t-53.5 18t-53 33.5t-47 51z" />
    <glyph glyph-name="plusminus" unicode="&#xb1;" 
d="M50 23v130h608v-130h-608zM286 215v235h-236v130h236v235h136v-235h236v-130h-236v-235h-136z" />
    <glyph glyph-name="lessequal" unicode="&#x2264;" horiz-adv-x="709" 
d="M659 825v-122l-383 -188l383 -188v-122l-609 310zM50 23v130h608v-130h-608z" />
    <glyph glyph-name="greaterequal" unicode="&#x2265;" horiz-adv-x="709" 
d="M50 205v122l383 188l-383 188v122l609 -310zM51 153h608v-130h-608v130z" />
    <glyph glyph-name="mu" unicode="&#xb5;" horiz-adv-x="670" 
d="M50 530h197v-300q0 -28 7 -45t15 -26q9 -11 25.5 -18t39.5 -7q14 0 30 4.5t31 18.5q13 13 20.5 32t7.5 38v303h197v-530h-187v73q-12 -38 -39.5 -58.5t-60.5 -20.5q-35 0 -60.5 20t-35.5 52v-243h-187v707z" />
    <glyph glyph-name="mu" unicode="&#x3bc;" horiz-adv-x="670" 
d="M50 530h197v-300q0 -28 7 -45t15 -26q9 -11 25.5 -18t39.5 -7q14 0 30 4.5t31 18.5q13 13 20.5 32t7.5 38v303h197v-530h-187v73q-12 -38 -39.5 -58.5t-60.5 -20.5q-35 0 -60.5 20t-35.5 52v-243h-187v707z" />
    <glyph glyph-name="logicalnot" unicode="&#xac;" 
d="M658 101h-140v158h-468v130h608v-288z" />
    <glyph glyph-name="radical" unicode="&#x221a;" horiz-adv-x="728" 
d="M728 827v-140h-188l-166 -687h-220l-53 244h-101v140h224l21 -91q1 -5 2.5 -14.5t3 -20t3 -20.5t1.5 -16l5 -61v-12h11q9 100 22 169.5t27 127.5l91 381h317z" />
    <glyph glyph-name="florin" unicode="&#x192;" horiz-adv-x="421" 
d="M23 -170l99 560h-79l24 140h79q3 13 9.5 31t18 37t28 37t40.5 32q10 6 29 14t52 14.5t81.5 10.5t117.5 2l-22 -122q-33 0 -54.5 -1t-36 -2.5t-23 -4t-14.5 -5.5q-11 -5 -19.5 -16t-10.5 -27h148l-24 -140h-148l-99 -560h-196z" />
    <glyph glyph-name="approxequal" unicode="&#x2248;" horiz-adv-x="539" 
d="M40 203q16 23 37 43t42 32q13 8 31.5 14t42.5 6q28 0 52 -11l44 -21q28 -14 43 -17t22 -3q15 0 25.5 6t19.5 14q13 12 21.5 23.5t10.5 15.5l68 -62q-14 -20 -35 -44t-40 -37q-35 -23 -80 -23q-23 0 -39 4.5t-27 9.5l-42 21q-8 4 -21 9t-30 5q-14 0 -24 -4.5t-18 -10.5
t-19 -18t-16 -18zM40 408q16 23 37 43t42 32q13 8 31.5 14t42.5 6q28 0 52 -11l44 -21q28 -14 43 -17t22 -3q15 0 25.5 6t19.5 14q13 12 21.5 23.5t10.5 15.5l68 -62q-14 -20 -35 -44t-40 -37q-35 -23 -80 -23q-23 0 -39 4.5t-27 9.5l-42 21q-8 4 -21 9t-30 5
q-14 0 -24 -4.5t-18 -10.5t-19 -18t-16 -18z" />
    <glyph glyph-name="Delta" unicode="&#x2206;" horiz-adv-x="714" 
d="M246 206q-2 -7 -3.5 -10.5t-1.5 -6.5q0 -12 9 -13.5t15 -1.5h184q6 0 15 1.5t9 13.5q0 3 -1.5 6.5t-3.5 10.5l-100 272q-2 5 -4 11.5t-7 6.5t-7 -6.5t-4 -11.5zM196 629q5 13 14.5 27t27 25.5t46.5 19t73 7.5t73 -7.5t46.5 -19t27 -25.5t14.5 -27l177 -426q5 -12 10 -23
t9.5 -23t7 -27t2.5 -35q0 -14 -2.5 -31t-12 -31t-28 -23.5t-49.5 -9.5h-550q-31 0 -49.5 9.5t-28 23.5t-12 31t-2.5 31q0 20 2.5 35t7 27t9.5 23t10 23z" />
    <glyph glyph-name="guillemotleft" unicode="&#xab;" horiz-adv-x="636" 
d="M532 305q-4 -5 -7.5 -11t-3.5 -13t3.5 -13t7.5 -11l54 -77l-128 -96l-102 133q-18 24 -24 39t-6 25t6 25t24 39l102 133l128 -96zM248 313q-5 -7 -8 -15.5t-3 -16.5t3 -16.5t8 -15.5l97 -139l-124 -96l-145 189q-14 17 -20 35.5t-6 42.5t6 42.5t20 35.5l145 189l124 -96z
" />
    <glyph glyph-name="guillemotright" unicode="&#xbb;" horiz-adv-x="636" 
d="M415 548l145 -189q14 -17 20 -35.5t6 -42.5t-6 -42.5t-20 -35.5l-145 -189l-124 96l97 139q5 7 8 15.5t3 16.5t-3 16.5t-8 15.5l-97 139zM178 478l102 -133q18 -24 24 -39t6 -25t-6 -25t-24 -39l-102 -133l-128 96l54 77q4 5 7.5 11t3.5 13t-3.5 13t-7.5 11l-54 77z" />
    <glyph glyph-name="ellipsis" unicode="&#x2026;" horiz-adv-x="894" 
d="M646 0v180h198v-180h-198zM348 0v180h198v-180h-198zM50 0v180h198v-180h-198z" />
    <glyph glyph-name="endash" unicode="&#x2013;" horiz-adv-x="552" 
d="M30 347h492v-158h-492v158z" />
    <glyph glyph-name="emdash" unicode="&#x2014;" horiz-adv-x="1027" 
d="M50 347h927v-158h-927v158z" />
    <glyph glyph-name="quotedblleft" unicode="&#x201c;" horiz-adv-x="618" 
d="M449 779l169 -246l-146 -87l-153 256zM180 779l169 -246l-146 -87l-153 256z" />
    <glyph glyph-name="quotedblright" unicode="&#x201d;" horiz-adv-x="618" 
d="M422 779l146 -87l-169 -246l-130 77zM153 779l146 -87l-169 -246l-130 77z" />
    <glyph glyph-name="quoteleft" unicode="&#x2018;" horiz-adv-x="349" 
d="M349 535l-146 -87l-153 256l130 77z" />
    <glyph glyph-name="quoteright" unicode="&#x2019;" horiz-adv-x="349" 
d="M130 448l-130 77l153 256l146 -87z" />
    <glyph glyph-name="divide" unicode="&#xf7;" 
d="M264 -27v180h180v-180h-180zM264 495v180h180v-180h-180zM50 259v130h608v-130h-608z" />
    <glyph glyph-name="quotedblbase" unicode="&#x201e;" horiz-adv-x="618" 
d="M422 185l146 -87l-169 -246l-130 77zM153 185l146 -87l-169 -246l-130 77z" />
    <glyph glyph-name="currency" unicode="&#xa4;" horiz-adv-x="706" 
d="M255 307q0 -20 7.5 -37.5t21 -31.5t31.5 -22t39 -8q20 0 38 8t31.5 21.5t21.5 31.5t8 38q0 21 -8 39t-22 31.5t-32 21t-37 7.5q-42 0 -70.5 -28.5t-28.5 -70.5zM212 536q23 15 58 28t84 13q52 0 87 -14t54 -26l75 75l86 -87l-74 -75q25 -37 33.5 -74t8.5 -69
q0 -31 -8.5 -67.5t-33.5 -73.5l74 -75l-86 -86l-74 74q-37 -25 -74 -33.5t-68 -8.5q-30 0 -67 8.5t-75 34.5l-76 -75l-86 86l74 75q-11 16 -25.5 50.5t-14.5 87.5q0 29 8 67t34 78l-76 76l86 87z" />
    <glyph glyph-name="quotedbl" unicode="&#x22;" horiz-adv-x="523" 
d="M287 700h186l-12 -325h-162zM50 700h186l-12 -325h-162z" />
    <glyph glyph-name="exclam" unicode="!" horiz-adv-x="328" 
d="M70 241l-20 459h228l-20 -459h-188zM66 182h196v-182h-196v182z" />
    <glyph glyph-name="afii10017" unicode="&#x410;" horiz-adv-x="798" 
d="M327 304h144l-63 177q-2 4 -4.5 9.5t-4.5 5.5t-4.5 -5.5t-4.5 -9.5zM239 623q8 19 19 35t29 27t44.5 17t67.5 6q25 0 48.5 -2.5t44 -11t38 -25.5t29.5 -46l259 -623h-238l-55 144h-252l-55 -144h-238z" />
    <glyph glyph-name="afii10018" unicode="&#x411;" horiz-adv-x="784" 
d="M276 220q0 -18 3 -27.5t9 -13.5t15 -4.5t21 -0.5h133q10 0 25.5 1.5t26.5 11.5q10 9 11.5 21.5t1.5 21.5q0 12 -2 22t-13 18q-11 9 -25.5 10.5t-24.5 1.5h-181v-62zM713 526h-394q-16 0 -24.5 -3t-12.5 -8.5t-5 -13t-1 -17.5v-50h323q41 0 70 -14t45 -32q14 -16 22 -37.5
t12 -44t5 -44t1 -39.5q0 -45 -6.5 -90.5t-32.5 -78.5q-3 -5 -11.5 -14t-23 -18t-34 -15.5t-45.5 -6.5h-453q-44 0 -71 27.5t-27 70.5v490q0 40 13.5 62.5t31.5 33.5t36.5 13.5t27.5 2.5h554v-174z" />
    <glyph glyph-name="afii10019" unicode="&#x412;" horiz-adv-x="775" 
d="M276 226q0 -18 2 -27.5t6 -14.5q7 -8 20.5 -9t21.5 -1h120q32 0 44.5 5t15.5 9q5 6 9 18t4 23q0 18 -9 30q-11 15 -27.5 17.5t-30.5 2.5h-176v-53zM444 431q14 0 29.5 2.5t24.5 16.5q4 7 5.5 16t1.5 16q0 10 -3 17.5t-8 12.5q-11 11 -25.5 12.5t-25.5 1.5h-129
q-8 0 -15 -1t-14 -7q-8 -7 -8.5 -14.5t-0.5 -15.5v-57h168zM50 587q0 51 24 78q13 15 34.5 25t44.5 10h380q19 0 39.5 -1.5t40.5 -6t38.5 -13.5t33.5 -25q15 -15 23.5 -34t13 -39t6 -40t1.5 -37q0 -29 -5.5 -56t-29.5 -53q-29 -32 -70 -35v-4q27 -2 48 -12.5t35 -23.5
q28 -27 33 -59.5t5 -64.5q0 -17 -0.5 -35.5t-4.5 -37.5t-12.5 -38t-24.5 -36q-17 -18 -35 -28t-37.5 -14.5t-41 -5.5t-43.5 -1h-366h-25t-27 3t-27 10t-25 20q-13 15 -19.5 36.5t-6.5 41.5v476z" />
    <glyph glyph-name="afii10020" unicode="&#x413;" horiz-adv-x="672" 
d="M50 0v572q0 23 4 47.5t24 46.5q14 14 35.5 24t47.5 10h521v-174h-359q-11 0 -22.5 -1t-18.5 -9q-5 -6 -5.5 -16t-0.5 -19v-481h-226z" />
    <glyph glyph-name="afii10021" unicode="&#x414;" horiz-adv-x="818" 
d="M286 174h246l-112 304q-2 5 -4 11.5t-7 6.5t-7 -6.5t-4 -11.5zM248 629q5 13 14.5 27t27 25.5t46.5 19t73 7.5t73 -7.5t46.5 -19t27 -25.5t14.5 -27l188 -455h70v-174h-838v174h69z" />
    <glyph glyph-name="afii10022" unicode="&#x415;" horiz-adv-x="691" 
d="M167 0q-22 0 -43.5 3.5t-41.5 20.5q-24 20 -28 41.5t-4 46.5v480q0 20 5 41t25 39t43 23t42 5h503v-170h-346q-10 0 -19.5 -2.5t-15.5 -7.5q-8 -7 -9.5 -17t-1.5 -17v-53h382v-152h-382v-76q0 -11 3 -17t7 -9q8 -8 20 -8.5t23 -0.5h342v-170h-504z" />
    <glyph glyph-name="afii10024" unicode="&#x416;" horiz-adv-x="1200" 
d="M487 700h226v-700h-226v700zM946 0l-170 266q-18 28 -29.5 51.5t-11.5 44.5q0 17 9 36t23 42l161 260h260l-204 -288l-18 -26t-9 -26q0 -8 6.5 -22t27.5 -42l229 -296h-274zM209 296q21 28 27.5 42t6.5 22q0 13 -9 26l-18 26l-200 288h260l157 -260q11 -19 21.5 -39
t10.5 -39q0 -21 -11.5 -44.5t-29.5 -51.5l-170 -266h-274z" />
    <glyph glyph-name="afii10025" unicode="&#x417;" 
d="M40 174h314q33 0 48 1.5t23 6.5q14 8 17.5 20.5t3.5 24.5q0 8 -2.5 20.5t-16.5 21.5q-9 6 -25 7.5t-47 1.5h-302v152h297q20 0 40.5 1t31.5 12q9 8 11 19.5t2 20.5q0 12 -3 22t-16 16q-6 2 -18.5 3.5t-44.5 1.5h-309v174h388q24 0 49.5 -0.5t50 -5t47 -14.5t40.5 -29
q14 -15 22 -32.5t12 -36t5 -38t1 -37.5q0 -32 -6 -62.5t-33 -56.5q-6 -6 -21.5 -16t-41.5 -15v-4q10 0 23 -1.5t27 -6.5t27 -15.5t23 -27.5q15 -26 18 -55t3 -58q0 -19 -1.5 -40.5t-7.5 -42.5t-18 -40.5t-33 -34.5q-20 -14 -44.5 -20.5t-51 -9t-51.5 -2t-44 0.5h-387v174z
" />
    <glyph glyph-name="afii10026" unicode="&#x418;" horiz-adv-x="862" 
d="M582 0l10 411q0 10 -1 18t-9 8q-5 0 -10 -8.5t-16 -25.5l-199 -340q-7 -12 -18 -25t-28.5 -23t-43 -16.5t-61.5 -6.5q-52 0 -82.5 14.5t-47 38t-21.5 53.5t-5 62v540h230l-10 -401v-11q0 -7 1.5 -15.5t10.5 -8.5q5 0 9 6.5t11 18.5l193 337q16 29 36 45.5t40.5 24.5
t40 10t34.5 2q60 0 93.5 -19t49.5 -46t19.5 -57t3.5 -51v-535h-230z" />
    <glyph glyph-name="afii10027" unicode="&#x419;" horiz-adv-x="862" 
d="M309 888q5 -12 14.5 -25.5t21.5 -23.5q16 -12 39 -18.5t44 -6.5t45 6.5t39 18.5q11 9 20.5 23.5t14.5 25.5h141q-6 -17 -15 -35t-20.5 -36t-25 -34t-28.5 -27q-33 -25 -79 -36.5t-92 -11.5t-92 11.5t-79 36.5q-15 11 -28.5 27t-25 34t-20.5 36t-15 35h141zM582 0l10 411
q0 10 -1 18t-9 8q-5 0 -10 -8.5t-16 -25.5l-199 -340q-7 -12 -18 -25t-28.5 -23t-43 -16.5t-61.5 -6.5q-52 0 -82.5 14.5t-47 38t-21.5 53.5t-5 62v540h230l-10 -401q0 -13 1 -24t11 -11q5 0 9 6.5t11 18.5l193 337q16 29 36 45.5t40.5 24.5t40 10t34.5 2q60 0 93.5 -19
t49.5 -46t19.5 -57t3.5 -51v-535h-230z" />
    <glyph glyph-name="afii10028" unicode="&#x41a;" horiz-adv-x="813" 
d="M571 0l-212 271q-13 17 -27 40.5t-14 46.5q0 20 10.5 41t21.5 37l188 264h268l-243 -289q-20 -23 -24.5 -35t-4.5 -17q0 -17 13 -34t24 -29l272 -296h-272zM70 700h226v-700h-226v700z" />
    <glyph glyph-name="afii10029" unicode="&#x41b;" horiz-adv-x="780" 
d="M239 636q11 25 30 39.5t40.5 22t43 9t37.5 1.5t37.5 -1.5t43 -9t40.5 -22t30 -39.5l269 -636h-240l-169 463q-2 3 -4.5 10t-6.5 7t-6.5 -7t-4.5 -10l-169 -463h-240z" />
    <glyph glyph-name="afii10030" unicode="&#x41c;" horiz-adv-x="1071" 
d="M670 86q-6 -19 -14 -36t-22.5 -30t-38 -20.5t-60.5 -7.5t-60.5 7.5t-38 20.5t-22.5 30t-14 36l-108 338q-3 10 -6.5 17.5t-7.5 7.5q-7 0 -7.5 -9t-0.5 -14l7 -426h-227v585q0 46 22 71t50.5 36.5t57 13.5t42.5 2q22 0 47.5 -3t50.5 -14.5t46 -34.5t35 -64l113 -340
q1 -3 3 -8t5 -10.5t6.5 -9.5t6.5 -4t6.5 4t6.5 9.5t5 10.5t3 8l113 340q13 41 34.5 64t46.5 34.5t50.5 14.5t48.5 3q60 0 94 -13t51.5 -32t22 -40.5t4.5 -37.5v-585h-228l8 426q0 14 -3 18.5t-6 4.5t-6 -5.5t-8 -19.5z" />
    <glyph glyph-name="afii10031" unicode="&#x41d;" horiz-adv-x="806" 
d="M756 0h-226v278h-254v-278h-226v700h226v-248h254v248h226v-700z" />
    <glyph glyph-name="afii10032" unicode="&#x41e;" horiz-adv-x="830" 
d="M262 350q0 -42 4.5 -74.5t21.5 -58.5q11 -17 24.5 -27.5t29 -15.5t34 -6.5t39.5 -1.5q22 0 40.5 1.5t33.5 6.5t28 15.5t25 27.5q19 28 22.5 59.5t3.5 73.5q0 23 -0.5 41t-2.5 33.5t-7.5 29.5t-15.5 29q-23 34 -53 42.5t-74 8.5q-22 0 -40 -1.5t-34 -7t-29 -15.5t-24 -27
q-19 -28 -22.5 -58.5t-3.5 -74.5zM415 708q40 0 82 -1.5t82.5 -8.5t77 -21.5t64.5 -40.5t44 -61t24 -73t9.5 -77.5t1.5 -74.5t-1.5 -74t-9.5 -77t-24 -73t-44 -62q-28 -26 -64.5 -40.5t-77 -21.5t-83 -8.5t-81.5 -1.5t-81.5 1.5t-83 8.5t-77 21.5t-64.5 40.5
q-29 27 -44.5 62t-23.5 73t-9.5 77t-1.5 74t1.5 74.5t9.5 77.5t23.5 73t44.5 61q28 26 64.5 40.5t77 21.5t82.5 8.5t82 1.5z" />
    <glyph glyph-name="afii10033" unicode="&#x41f;" horiz-adv-x="800" 
d="M321 532q-9 0 -18 -1t-17 -9t-9 -17t-1 -19v-486h-226v599q0 17 5 35.5t22 35.5q24 24 52 27t53 3h438q31 0 56 -4t47 -26q17 -17 22 -35.5t5 -35.5v-599h-226v486q0 9 -1 18.5t-9 17.5t-16.5 9t-18.5 1h-158z" />
    <glyph glyph-name="afii10034" unicode="&#x420;" horiz-adv-x="787" 
d="M438 376q21 0 41 1.5t34 16.5q18 20 18 61q0 14 -3 29t-17 26q-14 12 -32.5 14t-38.5 2h-125q-14 0 -21.5 -4.5t-11.5 -10.5t-5 -13t-1 -13v-109h162zM50 0v568q0 22 5 49t23 47q11 13 34 24.5t59 11.5h387q42 0 80 -8.5t67 -40.5q25 -26 38.5 -70.5t13.5 -120.5
q0 -18 -1.5 -47.5t-8 -61.5t-19 -62t-34.5 -49q-25 -21 -59.5 -29.5t-63.5 -8.5h-295v-202h-226z" />
    <glyph glyph-name="afii10035" unicode="&#x421;" horiz-adv-x="663" 
d="M333 0q-41 0 -75.5 3.5t-63.5 13t-54 26t-46 43.5q-16 19 -28 42.5t-20 54t-12 69.5t-4 89q0 88 11.5 154t49.5 114q24 31 54 49t62.5 27.5t65.5 12t63 2.5h296v-174h-187q-28 0 -52 -0.5t-44 -6t-36 -16.5t-28 -32q-8 -13 -12.5 -29.5t-6.5 -34t-3 -33.5t-1 -29
q0 -29 2 -49t4.5 -33.5t5.5 -21.5t5 -12q11 -21 28.5 -32t39.5 -16t48 -6t54 -1h194v-174h-310z" />
    <glyph glyph-name="afii10036" unicode="&#x422;" horiz-adv-x="706" 
d="M240 0v526h-250v174h726v-174h-250v-526h-226z" />
    <glyph glyph-name="afii10037" unicode="&#x423;" horiz-adv-x="751" 
d="M148 0l112 199l-280 501h252l146 -298l147 298h246l-377 -700h-246z" />
    <glyph glyph-name="afii10038" unicode="&#x424;" horiz-adv-x="996" 
d="M631 247q44 0 65 13t30 36q5 12 6.5 26t1.5 32q0 27 -2 42.5t-7 25.5q-11 24 -34 32.5t-52 8.5h-28v-216h20zM385 463h-28q-29 0 -52 -8.5t-34 -32.5q-5 -10 -7 -25.5t-2 -42.5q0 -18 1.5 -32t6.5 -26q9 -23 30 -36t65 -13h20v216zM611 700v-63h107q36 0 67.5 -1.5t58 -9
t47.5 -22t37 -40.5q4 -7 10.5 -21.5t12.5 -38.5t10.5 -59.5t4.5 -85.5q0 -23 -1.5 -50.5t-5 -55.5t-9.5 -53.5t-15 -44.5q-14 -29 -35 -45.5t-46 -24.5t-53 -10t-55 -2h-135v-73h-226v73h-135q-27 0 -55 2t-53 10t-46 24.5t-35 45.5q-9 19 -15 44.5t-9.5 53.5t-5 55.5
t-1.5 50.5q0 50 4.5 85.5t10.5 59.5t12.5 38.5t10.5 21.5q16 26 37 40.5t47.5 22t58 9t67.5 1.5h107v63h226z" />
    <glyph glyph-name="afii10039" unicode="&#x425;" horiz-adv-x="754" 
d="M504 0l-127 197l-127 -197h-270l265 355l-257 345h270l119 -187l119 187h270l-257 -345l265 -355h-270z" />
    <glyph glyph-name="afii10040" unicode="&#x426;" horiz-adv-x="842" 
d="M186 0q-27 0 -52 2.5t-48 23.5q-24 22 -30 50t-6 52v572h226v-461q0 -12 0.5 -28.5t8.5 -24.5q8 -9 24 -10.5t22 -1.5h201v526h226v-526h94v-174h-666z" />
    <glyph glyph-name="afii10041" unicode="&#x427;" horiz-adv-x="794" 
d="M518 0v277h-317q-16 0 -34.5 3.5t-36.5 12t-34.5 22.5t-28.5 35q-18 32 -22.5 64t-4.5 56v230h226v-174q0 -14 1.5 -33t13.5 -30q9 -8 26 -10t40 -2h171v249h226v-700h-226z" />
    <glyph glyph-name="afii10042" unicode="&#x428;" horiz-adv-x="1132" 
d="M679 700v-526h136q8 0 17 1.5t16 9.5q8 11 8 38v477h226v-595q0 -17 -5 -38.5t-23 -38.5q-13 -12 -34 -20t-48 -8h-812q-31 0 -50.5 8.5t-30.5 19.5q-19 17 -24 37.5t-5 39.5v595h226v-477q0 -27 8 -38q7 -8 16 -9.5t17 -1.5h136v526h226z" />
    <glyph glyph-name="afii10043" unicode="&#x429;" horiz-adv-x="1166" 
d="M1176 0h-1016q-31 0 -50.5 8.5t-30.5 19.5q-19 17 -24 37.5t-5 39.5v595h226v-477q0 -27 8 -38q7 -8 16 -9.5t17 -1.5h136v526h226v-526h177v526h226v-526h94v-174z" />
    <glyph glyph-name="afii10044" unicode="&#x42a;" horiz-adv-x="868" 
d="M357 216q0 -8 0.5 -16.5t5.5 -14.5q6 -8 16.5 -9.5t20.5 -1.5h117h41t25 6q8 5 15.5 18t7.5 38q0 14 -4 27.5t-23 21.5q-11 4 -25 4h-33h-164v-73zM-10 700h252q23 0 45 -6.5t42 -27.5q17 -19 22.5 -38t5.5 -39v-142h314q15 0 34 -2t38 -10t36.5 -24t31.5 -44
q17 -36 22 -72.5t5 -74.5q0 -37 -6 -78.5t-27 -73.5q-7 -11 -19.5 -22.5t-29.5 -22t-40 -17t-51 -6.5h-434q-23 0 -41.5 10.5t-29.5 23.5q-19 22 -24 48t-5 50v347q0 17 -3 25t-5 11q-3 4 -9.5 7.5t-16.5 3.5h-107v174z" />
    <glyph glyph-name="afii10045" unicode="&#x42b;" horiz-adv-x="1097" 
d="M821 0v700h226v-700h-226zM276 216q0 -8 0.5 -16.5t5.5 -14.5q6 -8 16.5 -9.5t20.5 -1.5h117h41t25 6q8 5 15.5 18t7.5 38q0 14 -4 27.5t-23 21.5q-11 4 -25 4h-33h-164v-73zM276 700v-253h314q15 0 34 -2t38 -10t36.5 -24t31.5 -44q17 -36 22 -72.5t5 -74.5
q0 -37 -6 -78.5t-27 -73.5q-7 -11 -19.5 -22.5t-29.5 -22t-40 -17t-51 -6.5h-434q-23 0 -41.5 10.5t-29.5 23.5q-19 22 -24 48t-5 50v568h226z" />
    <glyph glyph-name="afii10046" unicode="&#x42c;" horiz-adv-x="787" 
d="M276 216q0 -8 0.5 -16.5t5.5 -14.5q6 -8 16.5 -9.5t20.5 -1.5h117h41t25 6q8 5 15.5 18t7.5 38q0 14 -4 27.5t-23 21.5q-11 4 -25 4h-33h-164v-73zM276 700v-253h314q15 0 34 -2t38 -10t36.5 -24t31.5 -44q17 -36 22 -72.5t5 -74.5q0 -37 -6 -78.5t-27 -73.5
q-7 -11 -19.5 -22.5t-29.5 -22t-40 -17t-51 -6.5h-434q-23 0 -41.5 10.5t-29.5 23.5q-19 22 -24 48t-5 50v568h226z" />
    <glyph glyph-name="afii10047" unicode="&#x42d;" horiz-adv-x="682" 
d="M30 174h209q54 0 81 5.5t40 10.5q37 15 49 40.5t11 47.5h-367v158h367q-6 31 -22 46t-29 22q-26 14 -54.5 18t-62.5 4h-213v174h335q80 0 130 -21.5t77 -48.5q25 -25 39 -58t21 -69t9 -74t2 -73q0 -53 -3.5 -97.5t-12.5 -81.5t-25 -66t-41 -51q-22 -19 -47.5 -31
t-52 -18.5t-51.5 -8.5t-45 -2h-344v174z" />
    <glyph glyph-name="afii10048" unicode="&#x42e;" horiz-adv-x="1169" 
d="M601 350q0 -42 4.5 -74.5t21.5 -58.5q11 -17 24.5 -27.5t29 -15.5t34 -6.5t39.5 -1.5q22 0 40.5 1.5t33.5 6.5t28 15.5t25 27.5q19 28 22.5 59.5t3.5 73.5q0 23 -0.5 41t-2.5 33.5t-7.5 29.5t-15.5 29q-23 34 -53 42.5t-74 8.5q-22 0 -40 -1.5t-34 -7t-29 -15.5t-24 -27
q-19 -28 -22.5 -58.5t-3.5 -74.5zM371 436q0 24 4.5 51t13.5 53.5t23.5 51.5t35.5 44q28 26 64.5 40.5t77 21.5t83 8.5t81.5 1.5q40 0 82 -1.5t82.5 -8.5t77 -21.5t64.5 -40.5t44 -61t24 -73t9.5 -77.5t1.5 -74.5t-1.5 -74t-9.5 -77t-24 -73t-44 -62q-28 -26 -64.5 -40.5
t-77 -21.5t-83 -8.5t-81.5 -1.5t-81.5 1.5t-83 8.5t-77 21.5t-64.5 40.5q-20 18 -34.5 43.5t-24.5 54t-15 59.5t-5 60h-93v-281h-226v700h226v-264h95z" />
    <glyph glyph-name="afii10049" unicode="&#x42f;" horiz-adv-x="791" 
d="M515 0v480q0 8 -2 17.5t-11 17.5q-8 8 -16.5 9.5t-18.5 1.5h-142q-13 0 -26 -3.5t-24 -17.5q-9 -12 -11.5 -27t-2.5 -28q0 -26 3 -37.5t5 -13.5q11 -20 28 -25t32 -5h46q10 0 27 -1.5t33.5 -8t29 -20.5t12.5 -39v-16q0 -32 -13 -53.5t-30 -43.5l-142 -187h-272l195 206v3
h-30q-13 0 -29 3t-32 10.5t-31.5 20.5t-26.5 33q-11 19 -17 42t-9 47.5t-4 50t-1 50.5q0 43 5 85.5t29 80.5q28 43 69.5 55.5t98.5 12.5h402q20 0 41.5 -9t35.5 -23q17 -18 21 -40.5t4 -41.5v-586h-226z" />
    <glyph glyph-name="afii10050" unicode="&#x490;" horiz-adv-x="686" 
d="M70 578q0 7 1 18t4 23.5t10 25.5t19 25q20 20 42.5 25t46.5 5h241q10 0 21 1t17 9q5 6 6.5 18t1.5 21v76h226v-206q0 -13 -2.5 -27.5t-11.5 -28.5q-9 -13 -20 -20.5t-22.5 -11t-21.5 -4.5t-16 -1h-288q-7 0 -12.5 -1t-10.5 -7q-2 -3 -3.5 -10t-1.5 -25v-483h-226v578z
" />
    <glyph glyph-name="afii10055" horiz-adv-x="326" 
d="M50 0v700h226v-700h-226z" />
    <glyph glyph-name="afii10051" unicode="&#x402;" horiz-adv-x="895" 
d="M141 526h-161v174h678v-174h-291v-88h315q16 0 33.5 -2t35 -9t34 -19t30.5 -33q11 -17 17 -36t9 -38t3.5 -36.5t0.5 -32.5q0 -22 -1 -46t-5 -48t-12 -46t-21 -39q-14 -18 -30.5 -28.5t-34 -16t-35.5 -7t-34 -1.5h-184v174h60q12 0 30.5 2t27.5 14q2 3 4.5 11t2.5 29
q0 11 -2.5 24.5t-10.5 21.5q-9 9 -21 10.5t-19 1.5h-193v-288h-226v526z" />
    <glyph glyph-name="afii10099" unicode="&#x452;" horiz-adv-x="659" 
d="M64 577h-74v88h74v35h196v-35h157v-88h-157v-47h148q53 0 86.5 -9.5t56.5 -25.5q30 -20 45.5 -44t23 -48.5t8.5 -49t1 -44.5v-157q0 -29 -2 -52t-7 -48q-3 -18 -6 -32.5t-7 -28t-9 -26.5t-11 -29q-11 -29 -23 -53t-32 -53h-204q22 31 38.5 61t30.5 66q8 21 16 45.5
t13 50.5q3 17 5 41t2 59v120q0 55 -28 86q-19 21 -41 27t-42 6h-62v-392h-196v577z" />
    <glyph glyph-name="afii10052" unicode="&#x403;" horiz-adv-x="632" 
d="M438 898l-192 -158l-87 108l192 159zM0 0v572q0 23 4 47.5t24 46.5q14 14 35.5 24t47.5 10h521v-174h-359q-11 0 -22.5 -1t-18.5 -9q-5 -6 -5.5 -16t-0.5 -19v-481h-226z" />
    <glyph glyph-name="afii10100" unicode="&#x453;" horiz-adv-x="521" 
d="M394 728l-192 -158l-87 108l192 159zM0 0v429q0 15 2 34t13 35q5 8 21 20t46 12h439v-134h-288q-7 0 -14.5 -3.5t-12.5 -8.5q-4 -4 -7 -12t-3 -23v-349h-196z" />
    <glyph glyph-name="afii10103" unicode="&#x456;" horiz-adv-x="256" 
d="M30 583v117h196v-117h-196zM30 530h196v-530h-196v530z" />
    <glyph glyph-name="afii10098" unicode="&#x491;" horiz-adv-x="546" 
d="M50 446q0 17 3 33t17 30t30 17.5t28 3.5h212q6 0 15 2t14 7q6 5 6.5 12t0.5 12v97h190v-178q0 -14 -3 -32t-17 -32q-15 -15 -35.5 -17.5t-34.5 -2.5h-196q-19 0 -24 -1.5t-6 -2.5t-2.5 -6t-1.5 -23v-365h-196v446z" />
    <glyph glyph-name="afii10057" unicode="&#x408;" horiz-adv-x="512" 
d="M-20 174h101q40 0 66.5 7t44.5 21q16 13 25 29.5t13.5 33.5t5 35t0.5 34v366h226v-442q0 -21 -2.5 -44.5t-9 -48t-19 -48t-33.5 -44.5q-12 -12 -29.5 -25t-40.5 -23.5t-53 -17.5t-66 -7h-229v174z" />
    <glyph glyph-name="afii10053" unicode="&#x404;" horiz-adv-x="622" 
d="M278 0q-20 0 -45 2t-51.5 8.5t-52 18.5t-47.5 31q-25 22 -41 51t-25 66t-12.5 81.5t-3.5 97.5q0 35 2 73t9 74t21 69t39 58q27 27 77 48.5t130 21.5h335v-174h-213q-34 0 -62.5 -4t-54.5 -18q-13 -7 -29 -22t-22 -46h367v-158h-367q0 -11 2 -23t9 -24t18.5 -23t30.5 -18
q13 -5 40 -10.5t81 -5.5h209v-174h-344z" />
    <glyph glyph-name="afii10101" unicode="&#x454;" horiz-adv-x="579" 
d="M263 0q-23 0 -47.5 1.5t-49.5 8t-48 20.5t-41 39q-6 9 -14.5 24t-15.5 39.5t-12 60t-5 83.5q0 22 2 47.5t7 51t15 50t27 44.5q17 21 37.5 33t41 18t40 8t34.5 2h308v-134h-226q-14 0 -34.5 -4t-36.5 -20q-15 -15 -15 -36h305v-130h-305q0 -13 4.5 -26t13.5 -21
q14 -12 34.5 -14.5t37.5 -2.5h229v-142h-286z" />
    <glyph glyph-name="afii10056" unicode="&#x407;" horiz-adv-x="394" 
d="M-20 746v129h178v-129h-178zM236 746v129h178v-129h-178zM84 0v700h226v-700h-226z" />
    <glyph glyph-name="afii10104" unicode="&#x457;" horiz-adv-x="364" 
d="M-20 590v128h166v-128h-166zM218 718h166v-128h-166v128zM84 530h196v-530h-196v530z" />
    <glyph glyph-name="afii10058" unicode="&#x409;" horiz-adv-x="1294" 
d="M763 216q0 -8 1.5 -17t4.5 -14q6 -8 16.5 -9.5t20.5 -1.5h117q26 0 41 0.5t25 5.5q17 10 20 26.5t3 22.5q0 14 -4 26.5t-22 19.5q-11 4 -25 4h-34h-164v-63zM382 649q10 16 23 27.5t33 18.5t49.5 10t71.5 3q59 0 98.5 -5.5t63 -18.5t33 -35.5t9.5 -56.5v-155h314
q15 0 33.5 -1.5t37.5 -8.5t37 -21t32 -39q13 -24 20 -60.5t7 -88.5q0 -18 -1 -37.5t-5 -39.5t-10.5 -38.5t-16.5 -34.5q-7 -11 -19.5 -22.5t-29.5 -22t-40 -17t-51 -6.5h-434q-23 0 -41.5 10.5t-29.5 23.5q-19 22 -24 48t-5 50v379q0 5 -1.5 11.5t-9.5 6.5t-13 -11
l-276 -518h-257z" />
    <glyph glyph-name="afii10106" unicode="&#x459;" horiz-adv-x="1015" 
d="M611 186q0 -10 2.5 -19.5t8.5 -14.5q10 -10 31 -10h80q11 0 21 1t18 6q9 6 11 12.5t2 12.5q0 5 -1 12t-9 13q-12 8 -42 8h-122v-21zM272 483q17 28 52.5 40.5t104.5 12.5q46 0 80 -2.5t56.5 -13t34 -30.5t11.5 -55v-98h243q18 0 43.5 -5t47.5 -26q14 -14 22 -31.5t12 -36
t5 -37t1 -34.5q0 -15 -1 -33.5t-5 -36.5t-12 -35.5t-23 -31.5q-21 -20 -45 -25t-50 -5h-329q-17 0 -38.5 4t-39.5 23q-6 6 -16.5 24.5t-10.5 53.5v259q0 21 -4 26t-6 5q-3 0 -7 -3.5t-6 -8.5l-183 -383h-219z" />
    <glyph glyph-name="afii10059" unicode="&#x40a;" horiz-adv-x="1307" 
d="M776 216q0 -8 1.5 -17t4.5 -14q7 -11 17 -11h20h117q26 0 41 0.5t25 5.5q16 9 19.5 23.5t3.5 25.5q0 14 -4 27t-22 20q-11 4 -25 4h-34h-164v-64zM1090 452q16 0 34.5 -2t37.5 -10.5t36.5 -25.5t31.5 -47q17 -35 22 -69.5t5 -79.5q0 -18 -1 -37.5t-4.5 -39.5t-10 -38.5
t-17.5 -34.5q-7 -11 -19.5 -22.5t-29.5 -22t-40 -17t-51 -6.5h-434q-23 0 -41.5 10.5t-29.5 23.5q-19 22 -24 48t-5 50v148h-254v-280h-226v700h226v-248h254v248h226v-248h314z" />
    <glyph glyph-name="afii10107" unicode="&#x45a;" horiz-adv-x="1020" 
d="M616 186q0 -10 2.5 -19.5t8.5 -14.5q10 -10 31 -10h80q11 0 21 1t18 6q9 6 11 12.5t2 12.5q0 5 -1 12t-9 13q-7 5 -19 6.5t-23 1.5h-122v-21zM246 530v-186h174v186h196v-193h243q38 0 59.5 -10.5t31.5 -19.5q14 -14 22 -32.5t12 -38t5 -38.5t1 -33q0 -15 -1 -32.5
t-5 -35.5t-12 -35t-23 -31q-22 -21 -45 -26t-50 -5h-329q-17 0 -38.5 4t-39.5 23q-6 6 -16.5 24.5t-10.5 53.5v97h-174v-202h-196v530h196z" />
    <glyph glyph-name="afii10105" unicode="&#x458;" horiz-adv-x="336" 
d="M110 583v117h196v-117h-196zM-40 -44q43 -1 66.5 4t43.5 21q19 15 29.5 37t10.5 64v448h196v-489q0 -17 -2 -40t-10 -47t-23.5 -46.5t-41.5 -39.5q-38 -25 -101 -32.5t-168 -5.5v126z" />
    <glyph glyph-name="afii10054" unicode="&#x405;" horiz-adv-x="702" 
d="M27 174h388q25 0 32 7t7 15q0 17 -14 23.5t-31 11.5l-271 76q-31 8 -50 23.5t-30 29.5q-25 33 -31.5 75t-6.5 81q0 33 6.5 71t37.5 69q17 17 46 30.5t74 13.5h462v-174h-356q-20 0 -27 -1t-10 -3q-11 -6 -11 -19q0 -17 19.5 -25t39.5 -13l236 -63q23 -6 50.5 -18
t46.5 -31q16 -16 26 -36.5t14.5 -42t6 -42.5t1.5 -39q0 -31 -5 -69t-29 -70q-15 -20 -32 -31t-35.5 -16t-37 -6t-36.5 -1h-480v174z" />
    <glyph glyph-name="afii10060" unicode="&#x40b;" horiz-adv-x="889" 
d="M141 526h-161v174h678v-174h-291v-88h325q24 0 52.5 -5t51.5 -25q16 -13 24.5 -28.5t12.5 -31t5 -31t1 -28.5v-289h-226v237q0 11 -2 22t-12 19q-9 8 -22 9t-24 1h-186v-288h-226v526z" />
    <glyph glyph-name="afii10108" unicode="&#x45b;" horiz-adv-x="679" 
d="M64 577h-74v88h74v35h196v-35h157v-88h-157v-47h117q22 0 45 -0.5t46 -4t45 -11.5t43 -23q37 -27 55 -66.5t18 -78.5v-346h-196v270q0 19 -4.5 44t-25.5 47q-18 20 -39.5 25.5t-41.5 5.5h-62v-392h-196v577z" />
    <glyph glyph-name="afii10061" unicode="&#x40c;" horiz-adv-x="773" 
d="M492 898l-192 -158l-87 108l192 159zM501 0l-212 271q-13 17 -27 40.5t-14 46.5q0 20 10.5 41t21.5 37l188 264h268l-243 -289q-20 -23 -24.5 -35t-4.5 -17q0 -17 13 -34t24 -29l272 -296h-272zM0 700h226v-700h-226v700z" />
    <glyph glyph-name="afii10102" unicode="&#x455;" horiz-adv-x="552" 
d="M24 142h289q6 0 12 4q5 3 5 10q0 5 -3 7.5t-6 4.5q-5 3 -17 6.5t-43 14.5l-114 37q-36 12 -65 28.5t-44 41.5q-11 19 -15.5 44t-4.5 45q0 25 5.5 49.5t19.5 45.5q21 32 51 41t72 9h354v-136h-288q-5 0 -11 0.5t-12 -1.5q-4 -1 -6.5 -2.5t-2.5 -6.5q0 -6 3 -8t8 -4
q9 -3 13 -4.5t7 -3t7 -3t13 -4.5l134 -45q42 -14 72.5 -29t49.5 -43q19 -27 23 -56t4 -46q0 -29 -8.5 -60t-35.5 -53q-21 -17 -44 -21t-43 -4h-379v142z" />
    <glyph glyph-name="afii10062" unicode="&#x40e;" horiz-adv-x="791" 
d="M276 910q5 -12 14.5 -25.5t21.5 -23.5q16 -12 39 -18.5t44 -6.5t45 6.5t39 18.5q11 9 20.5 23.5t14.5 25.5h141q-6 -17 -15 -35t-20.5 -36t-25 -34t-28.5 -27q-33 -25 -79 -36.5t-92 -11.5t-92 11.5t-79 36.5q-15 11 -28.5 27t-25 34t-20.5 36t-15 35h141zM168 0l112 199
l-280 501h252l146 -298l147 298h246l-377 -700h-246z" />
    <glyph glyph-name="afii10110" unicode="&#x45e;" horiz-adv-x="682" 
d="M340 663q23 0 39.5 5t33.5 23t24 43h129q-8 -35 -25.5 -69.5t-41.5 -56.5q-18 -16 -38 -25.5t-40.5 -14.5t-41 -6.5t-39.5 -1.5t-39.5 1.5t-41 6.5t-40.5 14.5t-38 25.5q-24 22 -41.5 56.5t-25.5 69.5h129q7 -25 24 -43t33.5 -23t39.5 -5zM365 -171h-196l83 171l-252 530
h209l135 -325l142 325h196z" />
    <glyph glyph-name="afii10145" unicode="&#x40f;" horiz-adv-x="806" 
d="M290 0h-123q-22 0 -45 6.5t-38 19.5q-25 21 -29.5 47.5t-4.5 46.5v580h226v-484q0 -8 0.5 -14.5t5.5 -14.5q6 -10 14 -11.5t17 -1.5h180q11 0 17 1.5t14 11.5q7 9 6.5 15t-0.5 14v484h226v-580q0 -20 -4.5 -46.5t-29.5 -47.5q-15 -13 -38 -19.5t-45 -6.5h-123v-170h-226
v170z" />
    <glyph glyph-name="afii10193" unicode="&#x45f;" horiz-adv-x="666" 
d="M235 0h-106q-17 0 -31.5 2.5t-28.5 16.5q-13 13 -16 26.5t-3 24.5v460h196v-359q0 -7 0.5 -15.5t5.5 -13.5t11 -5.5t13 -0.5h114q7 0 13 0.5t11 5.5t5.5 13.5t0.5 15.5v359h196v-460q0 -11 -3 -24.5t-16 -26.5q-14 -14 -28.5 -16.5t-31.5 -2.5h-106v-176h-196v176z" />
    <glyph glyph-name="afii61352" unicode="&#x2116;" horiz-adv-x="1206" 
d="M1066 554q0 14 -2 33.5t-10 29.5q-10 13 -23 14t-24 1q-13 0 -25.5 -1.5t-21.5 -13.5q-8 -10 -10 -29.5t-2 -33.5v-19q0 -36 5 -48.5t7 -14.5q8 -10 22 -12.5t25 -2.5q9 0 23.5 2t23.5 13q7 9 9.5 28t2.5 35v19zM858 585q0 23 3.5 49.5t23.5 45.5q11 11 27 16.5t33 8
t33.5 3t28.5 0.5t28 -0.5t33.5 -3t33.5 -8t27 -16.5q18 -18 22.5 -46t4.5 -49v-83q0 -10 -1 -23t-3.5 -26.5t-8 -25.5t-14.5 -21q-10 -9 -24 -14.5t-30.5 -8.5t-34 -3.5t-33.5 -0.5q-12 0 -28.5 0.5t-33.5 3t-33 8t-27 15.5q-10 9 -15.5 21.5t-8 25.5t-3 25.5t-0.5 23.5v83z
M859 310h294v-80h-294v80zM776 117q0 -33 -11.5 -57t-31 -39t-45.5 -22t-56 -7q-18 0 -37.5 2t-38.5 9t-36.5 21t-32.5 37l-231 357q-2 4 -7.5 10.5t-10.5 6.5q-2 0 -8 -2.5t-6 -17.5v-415h-174v584q0 34 12.5 57.5t33 38.5t47.5 21.5t56 6.5q13 0 31 -1.5t37.5 -8
t38.5 -19.5t34 -36l233 -360q4 -5 8.5 -11t9.5 -6q8 0 9.5 6.5t1.5 10.5v417h174v-583z" />
    <glyph glyph-name="afii10023" unicode="&#x401;" horiz-adv-x="701" 
d="M132 746v119h182v-119h-182zM399 746v119h182v-119h-182zM167 0q-22 0 -43.5 3.5t-41.5 20.5q-24 20 -28 41.5t-4 46.5v480q0 20 5 41t25 39t43 23t42 5h503v-170h-346q-10 0 -19.5 -2.5t-15.5 -7.5q-8 -7 -9.5 -17t-1.5 -17v-53h382v-152h-382v-76q0 -11 3 -17t7 -9
q8 -8 20 -8.5t23 -0.5h342v-170h-504z" />
    <glyph glyph-name="afii10071" unicode="&#x451;" horiz-adv-x="605" 
d="M88 598v118h173v-118h-173zM349 716h173v-118h-173v118zM359 334q21 0 26.5 10t5.5 18q0 11 -7 21t-29 15q-12 2 -28 3t-24 1q-17 0 -37 -1.5t-31 -7.5q-15 -8 -19 -23.5t-2 -35.5h145zM233 0q-30 0 -57 1t-51 7.5t-44 20.5t-36 40q-17 29 -22 73.5t-5 116.5v69t3.5 61.5
t12.5 52.5t27 42q18 19 45.5 29.5t60.5 15.5t69.5 6t74.5 1q81 0 134 -5t85 -31q19 -15 30.5 -37t17.5 -46t7.5 -48.5t1.5 -46.5q0 -26 -4.5 -52.5t-27.5 -44.5q-13 -11 -25.5 -13t-26.5 -2h-289q-1 -11 1.5 -23t7.5 -20q13 -20 37.5 -22.5t50.5 -2.5h257v-142h-335z" />
    <glyph glyph-name="afii10097" unicode="&#x44f;" horiz-adv-x="621" 
d="M153 181q5 5 5 11q0 5 -5 5.5t-8 0.5h-13q-21 0 -40 9t-36 30q-24 31 -29.5 66.5t-5.5 66.5q0 30 7.5 65.5t37.5 62.5q17 15 39.5 23.5t45.5 8.5h335q26 0 43.5 -7t28.5 -16q22 -19 27.5 -43.5t5.5 -49.5v-414h-196v351q0 9 -1 19.5t-9 17.5q-6 5 -16 6.5t-20 1.5h-88
q-9 0 -16.5 -1t-15.5 -8q-9 -8 -10.5 -15.5t-1.5 -15.5q0 -7 1 -15t8 -14q8 -7 16 -7.5t15 -0.5h48q29 0 46.5 -14.5t17.5 -40.5q0 -23 -8.5 -43.5t-18.5 -35.5l-122 -185h-210z" />
    <glyph glyph-name="afii10065" unicode="&#x430;" horiz-adv-x="616" 
d="M251 208q-5 0 -13.5 -1.5t-15.5 -7.5q-5 -5 -6.5 -11.5t-1.5 -13.5q0 -6 1.5 -12t6.5 -11t12.5 -7t14.5 -2h102q8 0 16 1.5t13 5.5q7 5 8.5 12t1.5 14v33h-139zM405 530q49 0 81.5 -14.5t49.5 -31.5q16 -16 26 -35.5t15.5 -39t7 -39t1.5 -35.5v-222q0 -21 -4 -43.5
t-22 -41.5q-19 -20 -43 -24t-47 -4h-312q-25 0 -50.5 4t-46.5 24q-15 14 -24 33t-13 39.5t-5 40.5t-1 36q0 17 1.5 35.5t6 36.5t13.5 34t25 28q22 17 46.5 20t47.5 3h232v8q0 7 -1.5 16.5t-8.5 18.5q-11 15 -28 18t-32 3h-266v132h351z" />
    <glyph glyph-name="afii10066" unicode="&#x431;" horiz-adv-x="627" 
d="M226 208q0 -14 7 -30.5t20 -26.5q11 -9 28.5 -12t31.5 -3q11 0 30.5 2t32.5 10q12 7 19 18.5t10 23.5t3.5 24.5t0.5 23.5q0 23 -1.5 43t-9.5 35q-5 9 -20 23.5t-45 14.5h-107v-146zM348 566q-20 0 -47.5 -2.5t-47.5 -18.5q-9 -8 -19 -23.5t-8 -41.5h168q19 0 43 -1.5
t49 -8.5t48 -21t40 -39q24 -34 29.5 -77t5.5 -85q0 -48 -6 -95t-32 -85q-18 -27 -43 -42t-57 -22t-71 -8.5t-85 -1.5q-42 0 -81 1.5t-72.5 9t-60.5 23.5t-44 45q-20 34 -23.5 71t-3.5 75v272q0 41 8.5 72.5t23.5 54.5t36 38.5t44 25.5t46.5 14t43.5 4h349v-134h-233z" />
    <glyph glyph-name="afii10067" unicode="&#x432;" horiz-adv-x="616" 
d="M226 174q0 -3 0.5 -10.5t5.5 -12.5q5 -7 12.5 -8t12.5 -1h93q12 0 21.5 -0.5t20.5 10.5q8 7 9 12t1 11q0 8 -1.5 14.5t-9.5 12.5q-11 8 -22 8h-20h-123v-36zM345 332q25 0 34 3t11 5q8 5 9.5 13t1.5 15q0 6 -2 11t-9 10q-8 5 -19 6t-20 1h-85q-4 0 -12 -1t-15 -6
q-5 -4 -9 -10.5t-4 -16.5v-30h119zM30 423q0 26 9 48.5t24 35.5q20 16 48 19.5t54 3.5h251q18 0 38 -0.5t39.5 -3.5t37.5 -10.5t32 -21.5q11 -11 17.5 -25t9.5 -28t4 -26.5t1 -21.5q0 -22 -4.5 -46t-25.5 -44q-14 -13 -34.5 -20.5t-41.5 -9.5v-2q20 -2 42 -10t37 -22
q20 -19 25 -43t5 -48q0 -10 -1 -24.5t-4.5 -30.5t-11 -31.5t-20.5 -27.5q-28 -26 -65.5 -30t-76.5 -4h-259q-26 0 -53.5 2.5t-47.5 19.5q-8 7 -18.5 24.5t-10.5 50.5v326z" />
    <glyph glyph-name="afii10068" unicode="&#x433;" horiz-adv-x="531" 
d="M30 0v429q0 15 2 34t13 35q5 8 21 20t46 12h439v-134h-288q-7 0 -14.5 -3.5t-12.5 -8.5q-4 -4 -7 -12t-3 -23v-349h-196z" />
    <glyph glyph-name="afii10069" unicode="&#x434;" horiz-adv-x="644" 
d="M229 142h186l-84 218q-2 3 -4 7t-5 4t-5 -4t-4 -7zM202 477q10 21 24.5 33t30.5 17.5t33 7t32 1.5t32 -1.5t33 -7t30.5 -17.5t24.5 -33l159 -335h53v-142h-664v142h53z" />
    <glyph glyph-name="afii10070" unicode="&#x435;" horiz-adv-x="605" 
d="M359 334q21 0 26.5 10t5.5 18q0 11 -7 21t-29 15q-12 2 -28 3t-24 1q-17 0 -37 -1.5t-31 -7.5q-15 -8 -19 -23.5t-2 -35.5h145zM233 0q-30 0 -57 1t-51 7.5t-44 20.5t-36 40q-17 29 -22 73.5t-5 116.5v69t3.5 61.5t12.5 52.5t27 42q18 19 45.5 29.5t60.5 15.5t69.5 6
t74.5 1q81 0 134 -5t85 -31q19 -15 30.5 -37t17.5 -46t7.5 -48.5t1.5 -46.5q0 -26 -4.5 -52.5t-27.5 -44.5q-13 -11 -25.5 -13t-26.5 -2h-289q-1 -11 1.5 -23t7.5 -20q13 -20 37.5 -22.5t50.5 -2.5h257v-142h-335z" />
    <glyph glyph-name="afii10072" unicode="&#x436;" horiz-adv-x="938" 
d="M131 223q17 25 21 35.5t4 15.5q0 9 -7 19.5t-18 29.5l-127 207h215l105 -189q12 -22 21 -39.5t9 -32.5q0 -6 -4.5 -19t-20.5 -39l-132 -211h-217zM741 0l-132 211q-16 26 -20.5 39t-4.5 19q0 15 9 32.5t21 39.5l105 189h215l-127 -207q-11 -19 -18 -29.5t-7 -19.5
q0 -5 4 -15.5t21 -35.5l151 -223h-217zM376 0v530h186v-530h-186z" />
    <glyph glyph-name="afii10073" unicode="&#x437;" horiz-adv-x="581" 
d="M30 142h279q8 0 18 0.5t18.5 4t14 10t5.5 18.5t-6 19t-15 10.5t-19 4.5t-18 1h-262v122h263q8 0 17.5 0.5t18 3.5t14 9.5t5.5 18.5t-5.5 18.5t-13.5 9.5t-17.5 3.5t-17.5 0.5h-269v134h351q14 0 31 -0.5t34 -3.5t34 -9.5t31 -18.5q23 -21 29.5 -49.5t6.5 -51.5
q0 -21 -5.5 -45.5t-22.5 -44.5q-11 -11 -30 -22t-48 -9v-4q14 1 36 -4t42 -28q20 -22 26 -47.5t6 -48.5q0 -46 -13.5 -73t-29.5 -41q-26 -22 -59 -26t-67 -4h-362v142z" />
    <glyph glyph-name="afii10074" unicode="&#x438;" horiz-adv-x="671" 
d="M445 0l10 275q0 6 -1 11t-7 5q-5 0 -9 -5t-9 -11l-188 -235q-12 -15 -23 -24.5t-22.5 -14t-24.5 -6t-29 -1.5t-35.5 2.5t-36.5 13t-28.5 30t-11.5 54.5v436h196l-10 -275q0 -7 1.5 -11t7.5 -4t10.5 5.5t7.5 9.5l192 241q6 7 12.5 14.5t17 13t25 9t37.5 3.5q42 0 65 -13
t34 -30t13 -35t2 -28v-430h-196z" />
    <glyph glyph-name="afii10075" unicode="&#x439;" horiz-adv-x="671" 
d="M335 649q23 0 39.5 5t33.5 23t24 43h129q-8 -35 -25.5 -69.5t-41.5 -56.5q-18 -16 -38 -25.5t-40.5 -14.5t-41 -6.5t-39.5 -1.5t-39.5 1.5t-41 6.5t-40.5 14.5t-38 25.5q-24 22 -41.5 56.5t-25.5 69.5h129q7 -25 24 -43t33.5 -23t39.5 -5zM445 0l10 275q0 6 -1 11t-7 5
q-5 0 -9 -5t-9 -11l-188 -235q-12 -15 -23 -24.5t-22.5 -14t-24.5 -6t-29 -1.5t-35.5 2.5t-36.5 13t-28.5 30t-11.5 54.5v436h196l-10 -275q0 -7 1.5 -11t7.5 -4t10.5 5.5t7.5 9.5l192 241q6 7 12.5 14.5t17 13t25 9t37.5 3.5q42 0 65 -13t34 -30t13 -35t2 -28v-430h-196z
" />
    <glyph glyph-name="afii10076" unicode="&#x43a;" horiz-adv-x="617" 
d="M427 0l-155 213q-9 13 -17.5 28t-8.5 31q0 14 8.5 31t23.5 39l130 188h216l-157 -202q-29 -38 -29 -55q0 -12 7.5 -24t15.5 -22l186 -227h-220zM30 0v530h196v-530h-196z" />
    <glyph glyph-name="afii10077" unicode="&#x43b;" horiz-adv-x="670" 
d="M225 489q1 3 6.5 11t18 16t33 14t52.5 6t52.5 -6t33 -14t17.5 -16t7 -11l235 -489h-196l-139 342q-1 2 -3.5 8t-6.5 6t-6.5 -6t-3.5 -8l-139 -342h-196z" />
    <glyph glyph-name="afii10078" unicode="&#x43c;" horiz-adv-x="820" 
d="M502 46q-6 -17 -15.5 -27.5t-21.5 -16t-26 -7t-29 -1.5t-29 1.5t-26 7t-21.5 16t-15.5 27.5l-84 237q-5 14 -11 14q-7 0 -7 -12l10 -285h-196v435q0 26 12 45t32 31.5t45 18.5t52 6q55 0 88 -18.5t49 -63.5l83 -230q8 -23 19 -23t19 23l83 230q16 45 49 63.5t88 18.5
q27 0 52 -6t45 -18.5t32 -31.5t12 -45v-435h-196l10 286q0 8 -2.5 10t-4.5 2q-6 0 -11 -14z" />
    <glyph glyph-name="afii10079" unicode="&#x43d;" horiz-adv-x="626" 
d="M400 0v202h-174v-202h-196v530h196v-186h174v186h196v-530h-196z" />
    <glyph glyph-name="afii10080" unicode="&#x43e;" horiz-adv-x="648" 
d="M218 265q0 -44 6.5 -64.5t12.5 -28.5q1 -2 6.5 -8t16 -12t26 -11t38.5 -5q40 0 59.5 13t26.5 23q12 17 16 40.5t4 52.5q0 42 -5.5 63t-13.5 32q-8 10 -27 22t-60 12t-60 -12t-27 -22q-5 -8 -12 -28t-7 -67zM324 536q31 0 64 -1.5t64 -6.5t58.5 -16t49.5 -30
q25 -22 39 -51.5t21 -59.5t8.5 -58t1.5 -48t-1.5 -48t-8.5 -58t-21 -59.5t-39 -51.5q-22 -19 -49.5 -30t-58.5 -16t-64 -6.5t-64 -1.5q-32 0 -64.5 1.5t-63.5 6.5t-58.5 16t-49.5 30q-25 22 -39 51.5t-21 59.5t-8.5 58t-1.5 48t1.5 48t8.5 58t21 59.5t39 51.5q22 19 49.5 30
t58.5 16t63.5 6.5t64.5 1.5z" />
    <glyph glyph-name="afii10081" unicode="&#x43f;" horiz-adv-x="630" 
d="M480 530q24 0 49 -4t46 -25q17 -17 21 -35t4 -38v-428h-196v363q0 8 -1.5 14.5t-8.5 11.5q-6 5 -13.5 6t-11.5 1h-108q-4 0 -11.5 -1t-13.5 -6q-7 -5 -8.5 -11.5t-1.5 -14.5v-363h-196v428q0 20 4 38t21 35q21 21 46 25t49 4h330z" />
    <glyph glyph-name="afii10082" unicode="&#x440;" horiz-adv-x="615" 
d="M312 142q32 0 49 14t24 27q8 16 10 36.5t2 46.5q0 23 -1.5 42t-7.5 35t-16 25t-20.5 13.5t-20 5.5t-13.5 1h-69q-3 0 -8.5 -2.5t-7.5 -4.5q-7 -7 -7 -18v-221h86zM226 -170h-196v599q0 23 6.5 44t29.5 38q18 13 37 16t38 3h246q13 0 31.5 -1.5t39.5 -7t42.5 -16.5
t39.5 -30q20 -21 31.5 -46.5t17 -52t7 -51.5t1.5 -44q0 -17 -1 -43.5t-5 -55.5t-13 -58t-24 -51q-18 -26 -41 -40.5t-48 -21.5t-49 -9t-45 -2h-145v-170z" />
    <glyph glyph-name="afii10083" unicode="&#x441;" horiz-adv-x="551" 
d="M227 0q-17 0 -37.5 2t-42.5 8.5t-43 19t-39 33.5q-31 36 -39 85t-8 110q0 29 1.5 58.5t7.5 57.5t17.5 54t32.5 47q31 32 71.5 43.5t88.5 11.5h285v-134h-194q-25 0 -42.5 -5t-29 -14t-18.5 -20.5t-11 -24.5q-5 -16 -7 -33t-2 -37q0 -46 6 -65.5t10 -26.5
q9 -15 22.5 -22.5t28 -10.5t28.5 -3h26h194v-134h-306z" />
    <glyph glyph-name="afii10084" unicode="&#x442;" horiz-adv-x="592" 
d="M198 0v390h-198v140h592v-140h-198v-390h-196z" />
    <glyph glyph-name="afii10085" unicode="&#x443;" horiz-adv-x="662" 
d="M355 -171h-196l83 171l-252 530h209l135 -325l142 325h196z" />
    <glyph glyph-name="afii10086" unicode="&#x444;" horiz-adv-x="908" 
d="M570 138q14 0 29.5 0.5t30 4t27.5 12t22 24.5q8 14 11.5 34.5t3.5 48.5q0 47 -5.5 66t-9.5 25q-9 15 -23 23t-29 11.5t-29.5 4t-25.5 0.5h-21v-254h19zM357 392h-21q-11 0 -25.5 -0.5t-29.5 -4t-29 -11.5t-23 -23q-4 -6 -9.5 -25t-5.5 -66q0 -28 3.5 -48.5t11.5 -34.5
q9 -16 22 -24.5t27.5 -12t30 -4t29.5 -0.5h19v254zM551 700v-170h127q37 0 65 -7t49.5 -18t36 -25.5t24.5 -30.5q13 -21 20 -46t11 -50.5t5 -49.5t1 -43q0 -51 -7.5 -100.5t-36.5 -89.5q-16 -23 -36.5 -36.5t-43 -21t-46 -10t-46.5 -2.5h-123v-170h-194v170h-123
q-23 0 -46.5 2.5t-46 10t-43 21t-36.5 36.5q-29 40 -36.5 89.5t-7.5 100.5q0 19 1 43t4.5 49.5t11 50.5t20.5 46q10 16 24.5 30.5t36 25.5t49.5 18t65 7h127v170h194z" />
    <glyph glyph-name="afii10087" unicode="&#x445;" horiz-adv-x="632" 
d="M414 0l-98 150l-98 -150h-228l211 272l-194 258h223l86 -136l86 136h223l-194 -258l211 -272h-228z" />
    <glyph glyph-name="afii10088" unicode="&#x446;" horiz-adv-x="670" 
d="M114 0q-14 0 -29 3t-30 17q-16 14 -20.5 29.5t-4.5 32.5v448h196v-347q0 -8 1 -16.5t8 -15.5q8 -8 16.5 -8.5t16.5 -0.5h133v388h196v-388h83v-142h-566z" />
    <glyph glyph-name="afii10089" unicode="&#x447;" horiz-adv-x="626" 
d="M400 0v190h-241q-40 0 -65.5 17t-39.5 37q-18 25 -23 51.5t-5 53.5v181h196v-110q0 -25 1.5 -37.5t6.5 -20.5q10 -15 30 -18.5t34 -3.5h106v190h196v-530h-196z" />
    <glyph glyph-name="afii10090" unicode="&#x448;" horiz-adv-x="864" 
d="M529 530v-386h84q5 0 11 1.5t11 7.5q4 5 4.5 12t0.5 13v352h194v-436q0 -21 -2 -37t-19 -33q-20 -20 -41 -22t-39 -2h-602q-23 0 -43 3t-37 21q-15 16 -18 33t-3 37v436h194v-352q0 -6 0.5 -13t4.5 -12q5 -6 11 -7.5t11 -1.5h84v386h194z" />
    <glyph glyph-name="afii10091" unicode="&#x449;" horiz-adv-x="918" 
d="M528 530v-386h111v386h194v-386h85v-144h-787q-21 0 -43 3.5t-38 21.5q-14 15 -17 34t-3 35v436h194v-351q0 -7 1 -14.5t3 -11.5q3 -4 10.5 -6.5t12.5 -2.5h83v386h194z" />
    <glyph glyph-name="afii10092" unicode="&#x44a;" horiz-adv-x="694" 
d="M302 186q0 -10 2.5 -19.5t8.5 -14.5q10 -10 31 -10h80q14 0 23.5 1t15.5 6q10 7 11.5 17t1.5 18t-1.5 16.5t-9.5 14.5q-8 5 -20 6.5t-21 1.5h-122v-37zM214 530q3 0 20.5 -2.5t35.5 -17.5q12 -10 22 -28.5t10 -46.5v-82h239q42 0 66.5 -15.5t35.5 -29.5
q14 -18 23.5 -51.5t9.5 -93.5q0 -15 -1 -32t-5 -34.5t-12 -34.5t-23 -31q-22 -21 -45 -26t-50 -5h-329q-17 0 -38.5 4t-39.5 23q-6 6 -16.5 24.5t-10.5 53.5v251q0 8 -1.5 14.5t-6.5 13.5q-6 8 -13 9.5t-15 1.5h-70v135h214z" />
    <glyph glyph-name="afii10093" unicode="&#x44b;" horiz-adv-x="894" 
d="M668 530h196v-530h-196v530zM226 186q0 -10 2.5 -19.5t8.5 -14.5q10 -10 31 -10h80q14 0 23.5 1t15.5 6q10 7 11.5 17t1.5 18t-1 16.5t-9 14.5q-2 1 -10.5 4.5t-31.5 3.5h-122v-37zM226 530v-177h239q42 0 66.5 -15.5t35.5 -29.5q14 -18 23.5 -51.5t9.5 -93.5
q0 -15 -1 -32t-5 -34.5t-12 -34.5t-23 -31q-22 -21 -45 -26t-50 -5h-329q-17 0 -38.5 4t-39.5 23q-6 6 -16.5 24.5t-10.5 53.5v425h196z" />
    <glyph glyph-name="afii10094" unicode="&#x44c;" horiz-adv-x="618" 
d="M226 186q0 -10 2.5 -19.5t8.5 -14.5q10 -10 31 -10h80q14 0 23.5 1t15.5 6q10 7 11.5 17t1.5 18t-1 16.5t-9 14.5q-2 1 -10.5 4.5t-31.5 3.5h-122v-37zM226 530v-177h239q42 0 66.5 -15.5t35.5 -29.5q14 -18 23.5 -51.5t9.5 -93.5q0 -15 -1 -32t-5 -34.5t-12 -34.5
t-23 -31q-22 -21 -45 -26t-50 -5h-329q-17 0 -38.5 4t-39.5 23q-6 6 -16.5 24.5t-10.5 53.5v425h196z" />
    <glyph glyph-name="afii10095" unicode="&#x44d;" horiz-adv-x="555" 
d="M18 142h184q18 0 36 0.5t34.5 3.5t30.5 8.5t22 16.5q6 8 9 19t3 22h-305v124h305q-2 17 -9.5 27t-13.5 15q-20 16 -50.5 18t-57.5 2h-181v132h318q13 0 31 -1.5t37 -7.5t38.5 -17.5t36.5 -30.5q22 -26 36.5 -71.5t14.5 -127.5q0 -50 -5 -85.5t-12 -60.5t-15.5 -40
t-14.5 -23q-18 -24 -40.5 -37t-46.5 -19t-47.5 -7.5t-42.5 -1.5h-295v142z" />
    <glyph glyph-name="afii10096" unicode="&#x44e;" horiz-adv-x="929" 
d="M488 263q0 -19 1.5 -44t15.5 -45q9 -14 21.5 -21.5t25 -11.5t24 -4.5t19.5 -0.5t19.5 0.5t24 4.5t25 11.5t21.5 21.5q12 17 15 40.5t3 48.5q0 34 -3.5 57t-13.5 38q-9 12 -20.5 19.5t-23.5 11t-24.5 4.5t-22.5 1q-11 0 -23 -1t-24.5 -4.5t-23.5 -11t-20 -19.5
q-14 -20 -15 -46t-1 -49zM296 335q2 56 19 92.5t40 56.5q22 19 50 29.5t59.5 15.5t65 6t65.5 1q31 0 65 -1t66 -6t60 -15.5t49 -29.5q22 -20 35 -48.5t19.5 -59t8 -59t1.5 -49.5q0 -88 -18 -141t-46 -79q-20 -19 -48.5 -30t-60.5 -16t-66 -6.5t-65 -1.5q-32 0 -65.5 1.5
t-65 6.5t-59.5 16t-50 30q-11 10 -22 24.5t-19.5 34.5t-13.5 45.5t-4 58.5h-76v-211h-190v530h190v-195h76z" />
    <glyph glyph-name="afii10109" unicode="&#x45c;" horiz-adv-x="617" 
d="M464 728l-192 -158l-87 108l192 159zM427 0l-155 213q-9 13 -17.5 28t-8.5 31q0 14 8.5 31t23.5 39l130 188h216l-157 -202q-29 -38 -29 -55q0 -12 7.5 -24t15.5 -22l186 -227h-220zM30 0v530h196v-530h-196z" />
    </font>
</defs>
</svg>
