<?xml version="1.0" standalone="no"?>
<!DOCTYPE svg PUBLIC "-//W3C//DTD SVG 20010904//EN"
 "http://www.w3.org/TR/2001/REC-SVG-20010904/DTD/svg10.dtd">
<svg version="1.0" xmlns="http://www.w3.org/2000/svg"
 width="16.000000pt" height="16.000000pt" viewBox="0 0 16.000000 16.000000"
 preserveAspectRatio="xMidYMid meet">
<metadata>
Created by potrace 1.11, written by Peter Selinger 2001-2013
</metadata>
<g transform="translate(0.000000,16.000000) scale(0.003540,-0.003540)"
fill="#000000" stroke="none">
<path d="M1548 3081 c-9 -15 -16 -17 -29 -10 -45 24 -102 -36 -83 -88 7 -21 5
-31 -16 -53 -21 -23 -28 -25 -50 -17 -63 24 -130 -50 -130 -142 l-1 -56 -19
48 c-23 59 -37 77 -61 77 -33 0 -59 -36 -59 -81 l0 -42 -21 27 c-11 14 -30 26
-41 26 -34 0 -107 -48 -114 -75 -4 -18 -12 -23 -33 -23 -87 3 -130 -112 -82
-219 17 -37 18 -43 5 -62 -9 -12 -23 -21 -33 -21 -30 0 -121 110 -121 147 0 5
15 7 34 5 28 -3 37 1 51 22 15 22 16 31 5 56 -25 61 -85 77 -135 38 -80 -63
-71 -215 20 -316 53 -59 91 -77 146 -69 42 6 103 52 114 87 3 9 23 22 45 29
21 6 47 22 57 34 10 12 31 30 46 40 16 11 30 30 34 48 4 21 9 27 16 20 15 -15
60 -14 75 1 7 7 12 20 12 30 0 16 5 18 34 13 28 -6 39 -2 68 24 24 21 46 31
67 31 36 0 65 13 99 44 15 13 34 20 52 18 16 -2 42 4 59 12 16 9 40 16 52 16
21 0 66 12 117 31 12 5 27 20 32 34 l10 25 20 -20 c22 -22 60 -26 93 -8 12 6
44 12 72 14 184 8 230 14 256 33 26 19 26 19 42 0 29 -33 125 -16 141 26 13
34 6 67 -14 72 -19 5 -20 11 -14 67 5 52 3 65 -14 86 -17 21 -29 25 -69 24
-88 -1 -144 -54 -130 -123 5 -21 2 -31 -10 -35 -14 -6 -15 2 -9 62 9 87 2 93
-89 88 -80 -5 -110 -23 -142 -86 l-23 -44 0 40 c0 22 -5 45 -12 52 -20 20 -58
14 -83 -14 -14 -15 -25 -22 -25 -16 0 23 -48 25 -84 3 -46 -29 -68 -19 -60 25
10 56 -40 89 -68 45z m38 -43 c-9 -47 -33 -68 -77 -68 -33 0 -40 4 -45 27 -5
19 -2 30 12 40 16 12 20 11 31 -3 15 -21 46 -14 58 14 15 33 28 27 21 -10z
m739 5 c18 -17 17 -41 -1 -145 -5 -31 -4 -38 10 -38 9 0 16 5 16 10 0 6 5 10
10 10 15 0 12 -27 -6 -44 -19 -19 -67 -21 -82 -3 -7 8 -9 29 -5 50 8 51 -10
48 -42 -8 -27 -46 -52 -61 -84 -50 -11 3 -22 1 -26 -5 -9 -15 -51 -12 -65 5
-11 13 -15 12 -37 -5 -28 -22 -63 -26 -80 -9 -7 7 -21 4 -46 -11 -20 -12 -46
-20 -59 -18 -20 3 -23 9 -26 56 -2 28 -5 52 -7 52 -2 0 -16 -5 -30 -12 -21 -9
-25 -18 -25 -52 0 -50 -12 -70 -42 -71 -13 -1 -36 -7 -51 -15 -23 -11 -32 -11
-48 -1 -18 10 -23 9 -40 -13 -21 -27 -57 -34 -76 -15 -8 8 -23 -1 -53 -31 -39
-39 -45 -42 -86 -37 -38 4 -45 1 -59 -20 -9 -13 -27 -29 -40 -35 -32 -15 -57
6 -76 65 l-14 42 -3 -82 c-3 -103 -20 -110 -70 -30 l-33 52 6 -43 c7 -53 -10
-121 -33 -129 -9 -4 -29 -20 -43 -37 -20 -23 -34 -30 -61 -29 -31 1 -36 -3
-47 -33 -25 -70 -97 -102 -159 -70 -74 39 -116 116 -117 213 0 62 3 75 25 98
32 35 78 31 100 -7 9 -18 11 -31 5 -37 -16 -15 -39 -17 -41 -3 -1 6 -2 17 -3
23 0 6 -11 9 -23 7 -19 -2 -24 -10 -26 -41 -4 -51 28 -115 83 -166 56 -52 85
-53 121 -5 l27 35 -21 45 c-24 49 -29 129 -9 155 34 45 91 40 103 -7 4 -15 2
-46 -5 -68 -25 -83 -25 -86 -3 -86 29 0 51 26 45 51 -4 12 0 25 8 30 20 13 29
11 29 -6 0 -8 5 -15 11 -15 8 0 10 23 7 76 -6 85 -18 107 -40 75 -13 -19 -17
-19 -27 -7 -19 23 -5 50 34 69 20 9 40 17 45 17 5 0 26 -28 47 -62 l38 -63 3
87 c2 59 7 90 17 98 21 18 31 6 55 -64 11 -35 27 -72 34 -82 14 -18 15 -18 35
0 16 15 18 22 10 39 -6 11 -9 49 -7 85 4 56 8 68 32 88 32 28 58 30 80 8 24
-24 19 -65 -14 -118 -17 -26 -28 -52 -25 -57 13 -20 58 -8 86 22 26 28 29 38
29 95 0 50 -3 64 -15 64 -22 0 -18 13 10 40 36 34 49 15 53 -76 4 -80 17 -99
48 -73 14 11 16 27 11 91 -5 82 6 117 35 105 12 -4 17 -25 19 -86 5 -92 17
-115 49 -86 26 24 29 131 4 150 -15 11 -14 14 7 34 36 33 53 24 57 -32 2 -26
5 -47 7 -47 2 0 15 4 29 10 21 8 25 16 28 57 3 41 6 48 26 51 21 3 22 1 22
-92 0 -86 2 -96 18 -96 29 0 42 21 42 68 0 48 21 101 50 127 13 12 41 18 86
20 l66 4 -6 -42 c-19 -138 -19 -147 -3 -147 9 0 21 9 27 20 6 11 17 20 25 20
8 0 15 -9 15 -20 0 -27 16 -25 36 5 16 24 16 27 -5 49 -36 39 -26 90 23 112
43 18 81 17 101 -3z m-668 -175 c-2 -13 -4 -5 -4 17 -1 22 1 32 4 23 2 -10 2
-28 0 -40z m-246 -121 l-20 -21 17 36 c10 21 18 29 20 20 2 -8 -5 -24 -17 -35z
m-420 -178 c-20 -8 -28 30 -9 42 9 6 15 2 19 -14 3 -15 0 -24 -10 -28z"/>
<path d="M2245 3006 c-13 -19 -14 -29 -5 -45 22 -42 49 -16 50 47 0 29 -25 28
-45 -2z"/>
<path d="M2013 3010 c-26 -11 -39 -33 -48 -82 -9 -46 1 -78 24 -78 32 0 51 34
58 104 6 68 4 71 -34 56z m-1 -82 c-2 -21 -9 -38 -14 -38 -6 0 -7 13 -3 33 13
60 25 63 17 5z"/>
<path d="M1327 2844 c-11 -11 -8 -104 3 -104 15 0 42 59 38 83 -3 22 -28 34
-41 21z"/>
<path d="M870 2595 c-13 -16 -8 -68 10 -95 16 -24 31 7 28 59 -3 48 -17 61
-38 36z"/>
<path d="M2550 3063 c-33 -13 -50 -37 -48 -67 1 -17 -11 -63 -26 -103 -22 -57
-25 -76 -16 -92 15 -28 66 -28 97 1 18 16 23 18 23 6 0 -32 37 -51 87 -45 35
4 53 1 65 -10 9 -8 39 -17 65 -20 26 -3 62 -12 80 -21 24 -12 37 -13 55 -5 20
9 26 7 44 -15 14 -18 31 -25 57 -26 19 -1 44 -9 54 -19 11 -9 35 -20 54 -24
19 -3 46 -15 61 -26 l27 -20 -44 -50 c-50 -55 -54 -68 -25 -97 34 -34 60 -25
123 41 43 46 61 59 70 50 6 -6 28 -11 49 -11 25 0 38 -5 38 -13 0 -40 80 -73
108 -45 9 9 12 4 12 -24 0 -28 6 -41 28 -57 15 -12 38 -30 50 -41 14 -12 38
-20 58 -20 30 0 34 -3 34 -27 1 -32 16 -55 47 -71 56 -31 120 4 108 59 -4 18
-2 29 4 29 19 0 81 71 81 93 0 33 -35 84 -69 102 -57 29 -121 13 -148 -38 -11
-22 -18 -26 -26 -18 -8 8 1 24 36 59 26 26 47 53 47 59 0 21 -53 54 -77 48
-19 -4 -23 -1 -23 19 0 31 -20 47 -70 53 -30 4 -43 12 -53 31 -6 14 -21 30
-32 36 -11 6 -36 21 -56 33 -19 13 -49 23 -66 23 -23 0 -33 6 -38 20 -3 11
-18 23 -33 27 -15 3 -39 15 -53 26 -27 19 -90 21 -131 3 -15 -7 -18 -3 -18 17
0 35 -27 60 -59 54 -16 -3 -34 2 -50 14 -19 16 -34 18 -68 13 -28 -4 -43 -3
-43 5 0 15 -54 41 -85 41 -31 0 -61 -14 -92 -43 l-23 -20 0 25 c0 40 -29 68
-75 73 -22 2 -53 6 -70 9 -16 3 -37 3 -45 -1z m54 -44 c-1 -14 3 -14 35 -3 42
14 71 3 71 -27 0 -11 -9 -45 -20 -76 -25 -71 -25 -83 -1 -83 23 0 36 16 45 54
4 16 24 47 45 68 30 30 46 38 74 38 20 0 43 -7 51 -16 37 -36 9 -83 -69 -115
-30 -12 -55 -26 -55 -29 0 -4 9 -15 19 -24 15 -14 29 -16 58 -11 21 3 43 9 49
13 23 15 65 94 59 112 -5 14 1 20 26 25 48 11 59 -8 32 -55 -28 -53 -6 -55 44
-5 39 39 66 40 61 3 -2 -16 -17 -30 -45 -43 -35 -16 -42 -25 -43 -48 0 -65 47
-92 69 -38 35 82 133 125 191 82 16 -11 38 -21 50 -21 11 0 20 -4 20 -9 0 -4
-22 -39 -50 -77 -27 -38 -50 -74 -50 -81 0 -7 12 -13 26 -13 33 0 116 86 108
113 -4 14 1 17 31 17 28 0 38 -5 42 -20 3 -13 14 -20 29 -20 29 0 64 -33 64
-59 0 -27 -40 -82 -79 -108 -40 -27 -107 -31 -137 -8 -18 13 -23 10 -79 -52
-51 -55 -64 -65 -83 -59 -12 4 -22 11 -22 15 0 4 28 38 62 76 l62 70 -40 5
c-32 4 -40 9 -42 28 -3 21 -7 23 -36 18 -43 -8 -65 1 -76 30 -8 21 -13 22 -35
14 -35 -13 -41 -13 -59 6 -10 10 -16 33 -16 67 l0 51 -30 -47 c-16 -26 -34
-47 -39 -47 -22 0 -39 13 -35 25 4 10 -7 12 -54 8 -55 -5 -62 -3 -87 21 -21
21 -30 24 -45 16 -32 -17 -78 -12 -90 9 -8 15 -4 36 15 88 16 45 21 71 14 78
-18 18 -43 -11 -75 -86 -26 -63 -35 -74 -57 -77 -15 -2 -27 -1 -27 3 0 3 14
41 31 85 17 46 28 88 24 99 -4 13 0 23 12 30 25 15 58 9 57 -10z m296 -173
c-8 -8 -26 -17 -40 -20 -19 -5 -17 -2 10 13 42 24 49 26 30 7z m195 -56 c-19
-36 -25 -38 -25 -6 0 15 7 26 18 29 9 3 18 5 20 6 1 0 -4 -12 -13 -29z m275
-54 c0 -2 -8 -10 -17 -17 -16 -13 -17 -12 -4 4 13 16 21 21 21 13z m294 -92
c24 -9 20 -24 -16 -61 l-31 -32 26 -12 c22 -10 30 -8 60 15 39 30 50 32 66 12
10 -11 -1 -25 -54 -72 -71 -63 -84 -90 -37 -79 35 7 67 -20 37 -31 -30 -12 5
-23 36 -12 24 8 28 14 23 33 -19 78 104 101 151 28 25 -38 12 -67 -50 -110
-57 -39 -70 -63 -35 -63 24 0 27 -15 4 -24 -26 -10 -47 -7 -66 11 -26 23 -23
59 8 79 32 21 18 39 -20 24 -45 -17 -94 -13 -108 10 -7 11 -20 20 -28 20 -47
0 -52 55 -10 95 l30 29 -25 14 c-24 12 -29 11 -64 -17 -42 -33 -63 -38 -79
-18 -8 9 9 29 64 77 41 36 70 66 64 68 -5 2 -8 8 -4 13 6 10 35 12 58 3z"/>
<path d="M2816 2919 c-14 -17 -26 -37 -26 -46 0 -24 84 27 88 55 5 33 -31 28
-62 -9z"/>
<path d="M3208 2800 c-30 -23 -58 -78 -51 -97 4 -9 17 -13 36 -11 25 2 39 14
69 57 21 29 35 58 32 62 -9 16 -61 9 -86 -11z m33 -27 c-26 -44 -51 -66 -51
-44 0 9 46 61 55 61 3 0 1 -8 -4 -17z"/>
<path d="M3404 2653 c-24 -27 -44 -53 -44 -59 0 -13 23 -24 49 -24 45 0 114
88 90 116 -21 25 -50 15 -95 -33z m66 9 c0 -13 -39 -52 -52 -52 -7 0 1 14 17
30 31 32 35 35 35 22z"/>
<path d="M3832 2424 c-25 -17 -28 -36 -9 -53 10 -8 22 -4 47 17 50 42 16 74
-38 36z"/>
<path d="M2202 2620 c-90 -19 -145 -73 -158 -155 -8 -57 18 -112 66 -140 30
-17 52 -20 160 -20 112 1 130 3 162 23 41 25 62 67 60 120 -3 79 -35 128 -102
156 -47 19 -135 27 -188 16z m182 -44 c64 -27 100 -119 70 -181 -24 -50 -67
-64 -199 -61 -121 3 -147 11 -171 58 -38 74 18 175 108 197 53 12 146 6 192
-13z"/>
<path d="M2230 2521 l-25 -7 22 -12 c28 -15 52 -15 82 2 l23 13 -23 6 c-29 8
-46 7 -79 -2z"/>
<path d="M2141 2486 c-23 -28 -24 -73 -2 -95 31 -31 58 -28 58 7 0 15 2 34 6
42 4 9 -4 23 -22 37 -24 19 -31 20 -40 9z m29 -50 c0 -8 -4 -18 -10 -21 -5 -3
-10 3 -10 14 0 12 5 21 10 21 6 0 10 -6 10 -14z"/>
<path d="M2360 2478 c-19 -15 -24 -29 -25 -64 0 -47 14 -56 56 -34 22 12 26
75 6 101 -12 15 -15 15 -37 -3z m23 -43 c4 -8 2 -17 -3 -20 -6 -4 -10 3 -10
14 0 25 6 27 13 6z"/>
<path d="M2251 2416 c-8 -10 -8 -16 2 -24 17 -14 42 2 34 22 -8 20 -21 20 -36
2z"/>
<path d="M3174 2265 c-4 -8 -4 -22 0 -30 4 -12 -4 -15 -42 -15 -27 0 -53 -5
-60 -12 -16 -16 -15 -43 3 -58 11 -9 15 -33 15 -94 l-1 -81 -41 110 c-22 61
-45 116 -51 123 -7 9 -30 12 -71 10 l-61 -3 -25 -64 -25 -64 -9 31 c-12 42
-56 82 -102 92 -22 5 -191 9 -377 9 l-338 0 -21 -24 -21 -25 -11 23 c-10 19
-20 22 -85 25 -76 3 -101 -6 -101 -38 0 -9 9 -25 20 -35 17 -15 20 -31 20 -94
0 -41 -4 -71 -8 -65 -5 5 -23 50 -42 99 -47 131 -50 135 -113 135 -28 0 -57
-4 -64 -8 -6 -4 -24 -41 -39 -82 -14 -41 -31 -86 -36 -100 l-10 -25 -13 25
c-7 13 -28 32 -46 42 l-34 18 37 0 c23 0 38 5 42 16 11 29 6 91 -8 103 -9 8
-65 11 -176 9 -141 -3 -164 -5 -174 -20 -8 -13 -6 -22 12 -41 21 -22 22 -32
22 -164 0 -119 2 -142 16 -147 25 -10 185 -7 233 5 30 7 47 6 56 -1 7 -6 40
-10 72 -8 49 3 60 6 68 26 14 31 58 30 79 -3 16 -24 20 -25 134 -25 131 0 142
4 142 59 l0 36 30 -47 29 -46 220 -1 c121 -1 227 2 235 5 12 5 16 21 16 64 0
33 -4 62 -10 65 -12 8 -13 108 -1 120 5 6 11 19 14 30 3 11 5 -43 6 -120 1
-95 5 -145 13 -153 12 -12 95 -16 122 -6 11 4 16 19 16 50 0 44 0 44 35 44 20
0 52 7 71 15 30 12 35 12 31 1 -3 -8 -11 -33 -18 -56 -16 -51 -6 -60 68 -60
49 0 83 16 83 41 0 5 13 9 29 9 20 0 34 -8 45 -25 16 -24 20 -25 129 -25 61 0
117 4 123 8 5 4 21 25 35 47 l24 40 5 -45 5 -45 60 -3 c47 -3 62 0 72 14 16
22 18 316 3 345 -8 14 -21 19 -51 19 -33 0 -40 3 -35 15 13 36 -3 45 -85 45
-62 0 -81 -3 -85 -15z m121 -35 c-37 -25 -44 -25 -75 0 l-25 20 65 0 65 0 -30
-20z m-1855 -75 l0 -35 -90 0 -90 0 0 -30 0 -30 63 0 c89 0 127 -27 127 -90 0
-76 -47 -100 -192 -100 l-88 0 0 137 c0 127 -2 138 -22 160 l-21 23 156 0 157
0 0 -35z m265 -60 c18 -49 45 -120 59 -157 l25 -68 -48 0 c-41 0 -49 3 -59 25
-10 22 -18 25 -62 25 -45 0 -50 -3 -56 -25 -6 -22 -11 -25 -55 -25 l-48 0 13
38 c25 68 84 227 95 255 10 26 15 28 57 25 l47 -3 32 -90z m205 43 l1 -53 47
53 c46 51 48 52 102 52 l54 0 -35 -37 c-19 -21 -44 -50 -57 -64 l-22 -25 61
-89 c33 -49 63 -93 65 -97 3 -4 -21 -8 -53 -8 l-58 0 -38 61 c-31 51 -40 59
-52 49 -10 -8 -15 -30 -15 -61 l0 -49 -45 0 -45 0 0 135 c0 122 -2 137 -20
155 -11 11 -20 22 -20 25 0 3 29 5 65 5 l65 0 0 -52z m530 12 l0 -40 -85 0
c-78 0 -85 -2 -85 -20 0 -18 7 -20 75 -20 l75 0 0 -35 0 -35 -75 0 c-73 0 -75
-1 -75 -25 0 -25 1 -25 85 -25 l85 0 0 -40 0 -40 -130 0 -130 0 0 139 c0 111
-3 141 -15 151 -8 7 -15 16 -15 21 0 5 65 9 145 9 l145 0 0 -40z m311 2 c33
-37 38 -85 15 -131 -19 -35 -55 -51 -116 -51 l-50 0 0 -50 0 -50 -45 0 -45 0
0 137 c0 128 -1 138 -22 161 l-23 24 128 -3 129 -4 29 -33z m283 -114 c31 -84
56 -156 56 -160 0 -5 -20 -8 -45 -8 -39 0 -47 3 -55 25 -8 22 -15 25 -58 25
-42 0 -50 -3 -60 -25 -10 -21 -18 -25 -58 -25 -33 0 -45 4 -41 13 2 6 28 78
58 159 l54 148 46 0 47 0 56 -152z m176 72 c0 -44 3 -80 8 -80 4 0 26 36 50
80 l43 80 50 0 49 0 0 -160 0 -160 -45 0 -45 0 0 80 c0 44 -3 80 -8 80 -4 0
-28 -35 -52 -77 l-45 -78 -48 -3 -47 -3 0 144 c0 120 -3 146 -15 151 -34 13
-12 26 45 26 l60 0 0 -80z m60 56 c0 -2 -7 -9 -15 -16 -12 -10 -15 -10 -15 4
0 9 7 16 15 16 8 0 15 -2 15 -4z m-1120 -149 l0 -121 -51 75 c-28 41 -53 79
-55 84 -2 6 14 32 37 58 60 69 69 56 69 -96z"/>
<path d="M1260 1976 c0 -34 2 -36 33 -36 81 0 89 62 8 68 -41 3 -41 3 -41 -32z
m57 -2 c-3 -3 -12 -4 -19 -1 -8 3 -5 6 6 6 11 1 17 -2 13 -5z"/>
<path d="M1606 2035 c-9 -27 -16 -50 -16 -52 0 -2 14 -3 31 -3 31 0 31 1 24
38 -12 65 -21 69 -39 17z"/>
<path d="M2600 2074 c0 -34 1 -35 36 -32 71 6 74 68 4 68 -39 0 -40 -1 -40
-36z m57 0 c-3 -3 -12 -4 -19 -1 -8 3 -5 6 6 6 11 1 17 -2 13 -5z"/>
<path d="M2921 2057 c-6 -15 -14 -39 -17 -52 -6 -23 -3 -25 26 -25 30 0 31 1
24 33 -3 17 -10 41 -14 52 -7 18 -9 18 -19 -8z"/>
<path d="M2133 1719 c-25 -9 -40 -46 -25 -61 7 -7 7 -19 1 -36 -18 -48 -12
-50 151 -49 140 1 152 2 166 21 21 30 18 92 -6 116 -22 22 -25 22 -55 11 -11
-5 -28 -4 -38 1 -10 5 -24 5 -34 -1 -10 -5 -26 -5 -41 0 -14 5 -30 5 -40 0 -9
-5 -25 -6 -36 -1 -12 4 -31 4 -43 -1z m31 -15 c20 -8 21 -48 1 -64 -8 -7 -15
-16 -15 -21 0 -5 7 -9 15 -9 8 0 15 -4 15 -10 0 -5 -13 -10 -30 -10 -36 0 -37
6 -5 50 17 24 22 37 15 44 -8 8 -14 6 -20 -4 -5 -8 -12 -11 -16 -7 -4 3 -1 13
6 22 14 17 13 17 34 9z m84 -3 c9 -5 12 -25 10 -57 -3 -45 -5 -49 -28 -49 -22
0 -25 5 -28 43 -2 24 2 50 9 58 13 16 19 17 37 5z m81 -5 c7 -8 11 -34 9 -58
-3 -38 -6 -43 -28 -43 -23 0 -25 4 -28 49 -2 32 1 52 10 57 18 12 24 11 37 -5z
m79 2 c13 -13 16 -66 6 -92 -7 -18 -39 -21 -49 -5 -4 6 0 9 10 7 10 -2 20 3
22 10 3 7 -4 12 -16 12 -17 0 -21 6 -21 34 0 30 8 42 31 45 3 1 10 -4 17 -11z"/>
<path d="M2220 1650 c0 -22 5 -40 10 -40 6 0 10 18 10 40 0 22 -4 40 -10 40
-5 0 -10 -18 -10 -40z"/>
<path d="M2300 1650 c0 -22 5 -40 10 -40 6 0 10 18 10 40 0 22 -4 40 -10 40
-5 0 -10 -18 -10 -40z"/>
<path d="M2376 1681 c-8 -13 4 -42 15 -35 12 7 12 44 0 44 -6 0 -12 -4 -15 -9z"/>
<path d="M1504 1655 c-13 -32 6 -35 257 -35 l249 0 0 25 0 25 -250 0 c-210 0
-252 -2 -256 -15z m374 -12 c-64 -2 -172 -2 -240 0 -68 1 -15 3 117 3 132 0
187 -2 123 -3z"/>
<path d="M2530 1645 l0 -25 253 2 c244 3 252 4 252 23 0 19 -8 20 -252 23
l-253 2 0 -25z m378 -2 c-64 -2 -172 -2 -240 0 -68 1 -15 3 117 3 132 0 187
-2 123 -3z"/>
</g>
</svg>
